<?xml version="1.0" standalone="no"?>
<!DOCTYPE svg PUBLIC "-//W3C//DTD SVG 20010904//EN"
 "http://www.w3.org/TR/2001/REC-SVG-20010904/DTD/svg10.dtd">
<svg version="1.0" xmlns="http://www.w3.org/2000/svg"
 width="800.000000pt" height="800.000000pt" viewBox="0 0 800.000000 800.000000"
 preserveAspectRatio="xMidYMid meet">
<metadata>
Created by potrace 1.11, written by Peter Selinger 2001-2013
</metadata>
<g transform="translate(0.000000,800.000000) scale(0.100000,-0.100000)"
fill="#000000" stroke="none">
<path d="M4355 7721 c11 -18 -5 -34 -21 -20 -18 14 -29 6 -20 -16 3 -10 11
-13 18 -9 7 4 10 4 6 -1 -4 -4 -2 -15 5 -24 16 -21 -36 11 -78 48 l-30 26 25
-29 c22 -26 23 -28 5 -22 -32 12 -65 14 -65 4 0 -5 -5 -6 -10 -3 -6 4 -21 8
-35 11 -20 3 -23 1 -18 -13 10 -29 24 -42 38 -37 7 3 15 1 18 -3 12 -19 -45
-7 -61 13 -16 20 -72 39 -72 25 0 -4 -9 -7 -19 -7 -11 0 -19 4 -18 9 1 5 -4
12 -10 14 -7 3 -13 -1 -13 -7 0 -7 -8 -9 -20 -5 -16 5 -19 3 -13 -12 4 -10 11
-22 17 -26 13 -10 -29 -4 -58 8 -14 6 -17 5 -12 -4 6 -10 -3 -11 -40 -6 -46 7
-48 6 -29 -9 24 -18 8 -21 -43 -7 -20 6 -30 6 -27 0 4 -5 12 -9 19 -9 8 0 18
-6 24 -13 8 -10 6 -13 -9 -13 -10 0 -19 4 -19 8 0 4 -8 7 -17 7 -10 -1 -29 2
-43 6 -24 6 -24 6 -6 -9 22 -18 13 -36 -17 -35 -21 0 -21 1 -2 9 16 7 17 9 3
9 -9 1 -19 -3 -22 -7 -3 -5 -18 -7 -34 -4 -37 5 -76 -14 -68 -34 3 -8 2 -15
-2 -15 -4 -1 -22 -3 -40 -5 -33 -4 -66 -26 -56 -37 3 -3 -19 -5 -49 -5 -32 0
-63 -6 -78 -15 -13 -9 -41 -19 -61 -22 -21 -4 -38 -13 -38 -20 0 -7 -9 -15
-20 -18 -11 -3 -18 -1 -14 4 3 5 -2 9 -10 9 -9 0 -13 -6 -10 -13 3 -9 -10 -20
-40 -31 -31 -12 -43 -22 -39 -32 4 -11 -5 -14 -38 -15 -49 0 -137 -16 -102
-18 12 0 25 -5 28 -11 4 -6 -15 -10 -49 -10 -31 0 -56 -4 -56 -10 0 -5 -7 -10
-17 -10 -24 0 -10 -10 23 -16 16 -3 31 -7 33 -10 5 -4 -61 -8 -94 -4 -14 1
-17 -1 -10 -9 6 -6 23 -12 37 -13 15 -1 24 -6 22 -10 -3 -4 5 -8 18 -9 23 -1
23 -1 -2 -9 -14 -5 -42 -11 -62 -15 -27 -4 -36 -10 -31 -20 3 -10 -2 -15 -16
-15 -27 0 -111 -41 -105 -52 3 -4 -4 -8 -16 -8 -17 0 -20 -4 -15 -19 4 -14 0
-23 -15 -31 -11 -6 -20 -17 -20 -24 0 -13 -44 -32 -63 -27 -4 1 -7 -4 -6 -11
3 -28 -2 -38 -18 -38 -15 0 -16 -2 -3 -9 8 -6 18 -7 23 -4 14 9 -3 -41 -19
-53 -7 -6 -11 -14 -7 -17 3 -4 -1 -7 -11 -7 -22 0 -67 -30 -61 -40 3 -4 -2
-11 -11 -14 -13 -5 -14 -9 -4 -21 10 -12 10 -15 0 -15 -9 0 -10 -3 -1 -13 8
-11 4 -13 -22 -9 -28 4 -30 3 -19 -11 11 -13 10 -16 -8 -22 -11 -4 -20 -12
-18 -18 4 -22 -13 -57 -25 -51 -7 3 -4 -1 5 -9 17 -13 16 -16 -12 -43 -34 -34
-37 -44 -12 -44 16 -1 16 -1 0 -11 -10 -5 -18 -17 -18 -24 0 -8 -5 -15 -11
-15 -8 0 -8 -5 1 -15 10 -12 10 -15 -4 -15 -22 0 -21 -20 2 -21 11 -1 9 -4 -8
-9 -24 -8 -24 -8 -2 -9 19 -1 21 -3 10 -15 -7 -8 -17 -12 -21 -9 -5 3 -7 -10
-5 -28 2 -26 -3 -39 -21 -53 -19 -16 -22 -26 -18 -58 4 -26 0 -43 -10 -53 -8
-9 -12 -23 -8 -34 3 -11 1 -22 -5 -26 -6 -3 -8 -11 -4 -16 3 -5 0 -17 -7 -25
-15 -19 -21 -64 -8 -64 5 0 9 -7 9 -15 0 -8 -4 -15 -8 -15 -5 0 -8 -10 -7 -22
2 -13 -4 -33 -11 -45 -17 -27 -18 -37 -3 -27 7 4 6 -2 -1 -17 -10 -18 -10 -24
-1 -27 9 -3 9 -7 0 -18 -7 -8 -9 -17 -6 -21 4 -3 -1 -12 -11 -19 -11 -9 -13
-16 -7 -21 12 -9 13 -28 3 -38 -4 -4 -3 -16 2 -26 6 -9 7 -25 4 -33 -3 -9 -2
-16 3 -16 11 0 11 -36 0 -46 -11 -11 -8 -26 3 -19 6 3 10 2 10 -4 0 -5 -4 -12
-10 -16 -6 -4 -6 -15 0 -31 6 -14 7 -31 3 -37 -11 -16 -10 -51 1 -58 5 -4 5
-13 0 -20 -14 -23 -17 -62 -3 -54 8 5 9 1 4 -16 -8 -26 -8 -26 -6 -52 0 -10 4
-16 9 -13 4 2 7 -20 7 -51 -1 -30 3 -57 7 -59 5 -3 4 -12 -1 -21 -4 -9 -5 -30
-2 -47 3 -17 6 -48 6 -69 0 -25 4 -36 12 -33 9 4 10 -1 3 -20 -13 -34 -10
-105 4 -97 8 5 8 2 0 -8 -12 -15 -15 -49 -5 -49 3 0 6 -12 7 -27 2 -49 8 -83
15 -83 4 0 3 -16 -1 -35 -5 -20 -4 -33 1 -29 8 5 14 -41 10 -73 -1 -7 2 -13 8
-13 5 0 9 -17 8 -38 -1 -20 2 -42 6 -48 3 -6 8 -25 9 -43 1 -19 7 -30 14 -27
7 3 10 -2 7 -14 -3 -10 0 -21 6 -24 6 -4 13 5 17 21 3 15 7 34 10 41 5 16 -13
16 -19 0 -3 -7 -6 -8 -6 -3 -1 6 10 23 24 39 14 16 25 31 25 33 0 6 -21 -6
-45 -26 -11 -9 -6 0 10 20 17 19 33 31 36 26 4 -5 9 -5 13 2 4 6 2 11 -5 11
-8 0 -7 5 2 18 13 15 12 16 -4 3 -15 -12 -20 -12 -30 -1 -9 9 -9 11 0 6 6 -3
14 -2 18 4 3 5 2 10 -2 10 -5 0 -9 9 -10 20 -1 11 3 20 8 20 6 0 8 8 5 18 -4
13 8 33 43 68 30 31 51 61 55 82 3 18 2 31 -3 28 -5 -3 -11 -20 -15 -37 -7
-35 -103 -136 -125 -131 -10 3 -12 -2 -7 -15 6 -15 5 -16 -6 -5 -11 11 -9 17
9 31 12 10 24 30 27 44 2 14 10 36 17 49 8 12 19 39 26 58 l12 35 -18 -24
c-11 -14 -17 -30 -14 -37 2 -7 -6 -18 -19 -25 -21 -11 -22 -11 -9 5 8 10 15
26 16 36 2 23 40 71 50 62 5 -4 5 -2 1 5 -4 7 1 24 10 38 10 16 12 25 5 25 -7
0 -20 -14 -29 -31 -9 -17 -27 -47 -40 -66 -12 -19 -20 -38 -17 -42 2 -5 -7
-19 -20 -31 -14 -13 -25 -19 -25 -13 0 6 7 16 15 23 8 7 15 17 15 23 0 5 -10
2 -22 -9 -13 -10 -4 2 20 27 34 36 40 47 30 58 -11 10 -10 11 3 6 13 -5 18 2
23 29 4 20 12 39 19 43 7 5 21 21 31 37 10 16 13 25 7 22 -18 -12 -12 12 7 26
23 18 76 99 77 121 1 10 8 23 15 30 10 10 12 8 6 -6 -4 -12 -2 -17 6 -15 6 2
17 25 25 50 12 41 43 74 43 46 0 -6 2 -9 5 -6 8 8 -6 39 -15 33 -5 -3 -8 4 -7
15 1 20 2 20 14 4 12 -17 15 -16 45 12 l32 29 -17 -27 c-19 -31 -22 -42 -7
-33 6 4 21 28 35 54 13 27 32 52 41 55 17 6 17 6 1 -12 -9 -10 -17 -22 -17
-26 0 -4 -9 -19 -20 -33 -11 -14 -20 -30 -20 -36 0 -19 52 38 67 73 8 19 25
46 36 59 12 13 16 21 10 17 -8 -4 -13 -2 -13 5 0 8 -7 6 -19 -5 -17 -16 -18
-15 -15 10 1 15 20 44 40 65 23 24 32 39 24 39 -9 1 1 15 23 34 29 26 34 35
22 40 -8 3 -15 2 -15 -2 0 -4 -21 -30 -46 -57 -25 -28 -57 -68 -72 -90 -20
-30 -27 -36 -30 -22 -2 10 -8 14 -15 10 -7 -4 -5 2 3 13 22 29 24 30 17 12 -4
-10 -2 -18 3 -18 6 0 11 5 11 10 1 6 2 15 3 21 0 6 19 27 41 46 22 19 32 32
22 29 -11 -3 -16 -2 -12 4 4 6 14 9 23 8 9 -2 17 3 17 9 0 7 19 33 43 58 58
62 38 57 -26 -7 -57 -57 -70 -59 -21 -3 17 19 28 35 24 35 -13 0 -94 -63 -90
-70 2 -4 -10 -20 -28 -36 l-32 -29 29 33 c30 32 27 43 -4 20 -9 -7 9 10 40 39
30 28 60 50 65 50 6 -1 9 4 7 11 -1 6 1 11 5 10 11 -4 74 58 67 65 -3 3 -13 3
-22 0 -16 -6 -16 -5 -1 13 9 10 20 26 24 34 7 12 6 13 -7 3 -8 -7 -18 -9 -22
-5 -4 4 -6 1 -4 -5 3 -14 -80 -103 -96 -103 -6 0 7 16 29 35 22 19 35 34 30
35 -6 0 -17 -6 -25 -12 -8 -7 12 17 44 55 32 37 55 67 52 67 -3 0 -14 -10 -26
-22 -11 -12 -23 -18 -27 -14 -5 4 2 16 15 27 13 10 21 23 18 28 -4 5 -2 12 4
16 25 16 7 24 -22 10 -33 -16 -33 -16 -11 3 12 11 19 23 15 27 -4 5 -2 6 3 3
6 -3 19 3 30 14 20 19 20 20 -9 12 l-30 -7 24 34 c13 19 17 28 8 21 -8 -7 -23
-10 -32 -6 -9 3 -23 1 -31 -6 -9 -7 -18 -11 -20 -8 -3 2 16 17 40 33 49 31 54
39 28 54 -17 10 -16 10 2 11 15 1 17 3 5 8 -21 10 -19 36 5 45 11 5 15 11 10
15 -18 13 -17 35 1 28 14 -6 15 -4 4 10 -12 13 -11 17 1 25 8 5 9 9 3 9 -6 0
-11 7 -11 15 0 8 4 15 9 15 15 0 8 19 -9 23 -13 3 -11 5 6 6 20 1 21 3 11 16
-10 13 -9 15 9 15 25 0 29 20 4 21 -11 0 -13 3 -5 6 6 2 9 10 5 16 -3 7 -3 9
2 5 4 -4 17 -2 29 4 20 11 20 11 1 19 -19 7 -19 8 1 8 28 1 36 11 22 28 -10
12 -9 14 4 11 8 -1 33 15 55 37 21 22 51 49 67 60 15 11 44 35 64 52 20 18 43
33 50 33 6 0 12 4 12 9 0 13 60 35 88 32 12 -1 22 3 22 9 0 5 -7 10 -15 10 -8
0 -15 4 -15 9 0 5 14 8 30 6 17 -2 41 0 53 4 20 8 20 10 5 16 -10 4 -18 11
-18 16 0 6 9 5 20 -1 16 -9 19 -8 13 6 -4 12 -3 15 5 10 7 -4 12 -3 12 3 0 6
6 8 14 5 8 -3 25 1 38 9 14 8 49 13 90 13 39 -1 64 3 60 8 -3 5 2 6 12 3 13
-5 17 -3 13 7 -4 11 -1 13 10 9 12 -5 14 -3 8 6 -7 13 5 11 55 -7 13 -5 13 -4
0 13 -9 11 -10 16 -2 11 22 -13 13 12 -10 28 -12 9 -17 16 -11 16 6 0 16 -7
23 -15 7 -8 19 -15 28 -15 12 0 12 4 -4 22 l-19 22 32 -22 32 -22 6 20 c5 17
9 19 21 9 12 -10 13 -9 8 5 -5 12 0 16 21 16 18 0 24 -4 20 -12 -4 -7 0 -5 8
5 13 16 15 16 21 1 6 -16 32 -14 29 2 -1 5 11 9 27 9 15 0 27 -2 25 -5 -2 -3
3 -11 11 -18 9 -8 14 -9 14 -2 0 6 4 8 10 5 6 -3 7 1 4 9 -3 9 -1 16 5 16 6 0
11 -4 11 -10 0 -5 7 -10 17 -10 14 0 15 2 1 18 -33 38 -29 44 5 7 28 -31 36
-36 37 -21 0 15 3 16 15 6 13 -11 14 -10 8 6 -6 16 -4 17 9 7 8 -7 18 -10 22
-6 4 4 11 1 16 -7 8 -12 10 -13 10 -1 0 11 5 10 20 -4 18 -17 20 -17 14 -2 -9
25 12 20 34 -8 11 -14 24 -25 28 -25 4 0 3 5 -4 12 -24 24 -11 31 15 7 17 -15
24 -18 21 -8 -9 23 22 20 51 -5 l24 -21 -13 25 -13 25 22 -19 c18 -17 21 -17
15 -3 -3 9 -3 17 0 17 4 0 11 -12 17 -27 10 -27 11 -27 21 -8 6 11 12 21 14
23 1 2 16 -4 33 -13 18 -9 36 -13 41 -10 6 3 7 -1 4 -9 -9 -24 11 -19 28 6 12
18 15 19 15 5 0 -9 -4 -17 -9 -17 -17 0 -7 -18 13 -23 12 -3 18 -10 14 -17 -9
-14 13 -40 32 -40 13 0 13 2 2 17 -13 15 -12 15 11 3 14 -7 33 -23 43 -34 19
-21 19 -21 12 9 l-7 30 25 -35 c14 -20 46 -53 71 -74 47 -38 63 -43 25 -7 -13
12 -19 26 -16 35 9 22 19 20 56 -13 31 -27 35 -51 9 -51 -6 0 -6 6 2 15 11 13
10 14 -4 9 -21 -8 -20 -13 9 -40 24 -22 26 -22 37 -5 11 17 12 17 35 -2 27
-24 30 -39 6 -31 -15 5 -15 3 1 -7 16 -10 21 -9 31 5 11 14 14 14 25 1 7 -8
10 -22 6 -30 -4 -10 1 -15 14 -15 21 0 60 -37 81 -77 11 -20 11 -26 0 -33 -16
-10 -6 -30 16 -30 12 0 13 3 4 14 -19 23 2 26 29 4 14 -11 20 -17 15 -15 -6 3
-16 -3 -23 -14 -7 -10 -8 -19 -3 -19 5 0 12 6 15 13 5 9 7 9 12 -1 3 -6 10
-10 15 -7 5 4 19 -4 31 -16 20 -19 20 -21 4 -15 -16 5 -17 4 -6 -9 7 -9 10
-18 7 -22 -3 -3 0 -18 8 -33 13 -25 13 -29 -1 -34 -13 -5 -14 -9 -5 -20 9 -10
9 -15 1 -18 -7 -2 -2 -12 11 -23 12 -11 19 -14 15 -8 -21 37 -13 70 13 54 10
-7 10 -16 0 -50 -13 -45 -24 -52 -32 -21 -3 11 -10 20 -17 20 -7 0 -9 -8 -5
-20 4 -12 2 -20 -6 -20 -8 0 -8 -4 2 -16 10 -13 10 -17 -1 -24 -8 -5 -17 -7
-21 -4 -4 2 -6 -17 -4 -42 l3 -47 -22 28 c-13 16 -23 22 -23 14 0 -8 -3 -25
-8 -39 -7 -22 -6 -23 9 -11 10 9 16 10 16 2 0 -6 -5 -11 -10 -11 -7 0 -6 -8 1
-22 7 -14 14 -18 16 -11 4 10 9 10 24 0 10 -6 19 -16 19 -21 0 -6 -5 -5 -12 2
-19 19 -26 14 -24 -15 0 -16 11 -39 23 -53 13 -14 23 -27 24 -30 0 -3 2 -16 3
-29 2 -13 11 -28 21 -33 13 -8 14 -12 5 -18 -22 -13 21 -61 43 -48 10 5 16 5
15 1 -2 -5 7 -19 20 -33 12 -13 22 -32 22 -42 0 -10 5 -18 11 -18 6 0 8 8 4
19 -4 13 -1 19 7 17 24 -3 39 -17 36 -34 -2 -13 3 -16 22 -14 24 3 24 2 5 -14
-19 -14 -19 -15 -1 -10 10 4 25 1 34 -6 8 -7 17 -12 19 -10 1 1 6 2 11 2 4 0
0 -4 -8 -10 -9 -5 -17 -5 -21 1 -8 13 -39 0 -39 -17 0 -8 12 -19 26 -24 14 -6
22 -14 19 -20 -3 -5 -1 -10 4 -10 6 0 11 -4 11 -10 0 -5 -7 -7 -16 -3 -8 3
-13 12 -10 19 3 8 1 14 -4 14 -6 0 -10 -6 -10 -14 0 -19 -47 -26 -61 -10 -6 8
-17 14 -23 13 -7 0 -6 -2 2 -6 6 -2 12 -9 12 -14 0 -6 -5 -7 -12 -3 -7 4 -8 3
-4 -4 4 -7 14 -12 23 -12 9 0 13 -6 9 -15 -3 -8 0 -15 6 -15 6 0 9 -3 5 -6 -3
-3 -20 1 -38 10 -38 19 -42 20 -33 4 5 -7 3 -8 -7 -2 -20 12 -39 14 -39 3 0
-5 10 -14 23 -19 21 -9 21 -9 -4 -9 -16 -1 -33 8 -43 22 -9 12 -14 16 -11 10
4 -9 -2 -13 -17 -13 l-23 -1 25 -14 c18 -10 20 -14 8 -15 -9 0 -18 -5 -20 -11
-2 -6 -14 -8 -31 -4 -15 4 -25 11 -22 15 2 4 -7 5 -21 2 -16 -3 -23 -9 -20
-18 3 -9 -2 -14 -13 -14 -11 0 -27 -3 -37 -7 -11 -4 -15 -3 -10 5 3 6 -7 4
-24 -4 -37 -19 -38 -26 -2 -19 26 5 26 5 3 -5 -17 -7 -28 -7 -37 1 -11 9 -14
8 -14 -1 0 -6 -10 -21 -22 -32 -13 -11 -17 -17 -10 -13 14 7 17 -11 2 -20 -6
-3 -10 -1 -10 5 0 6 -4 9 -8 6 -5 -3 -7 9 -5 27 4 31 4 31 -12 12 -9 -11 -21
-29 -27 -40 -10 -19 -10 -19 7 -5 17 14 18 13 12 -9 -4 -18 -3 -21 6 -12 15
15 27 14 27 -2 0 -8 -11 -19 -25 -25 -15 -7 -25 -19 -23 -28 2 -10 -3 -18 -10
-20 -7 -1 -8 0 -3 2 7 4 7 14 0 31 -5 13 -6 30 -3 36 5 8 4 9 -4 2 -6 -5 -12
-21 -14 -35 -1 -14 -8 -25 -14 -25 -6 0 -18 -8 -27 -17 -62 -62 -592 -26 -637
44 -8 12 -25 33 -36 45 -12 12 -19 25 -15 29 3 4 0 4 -7 0 -11 -6 -9 -13 6
-30 11 -11 23 -32 26 -46 7 -24 6 -24 -8 -6 -9 11 -16 22 -16 25 0 3 -12 14
-26 25 -19 14 -28 15 -34 7 -4 -8 -17 -10 -36 -5 l-29 8 30 7 30 7 -35 1 c-27
1 -32 4 -20 12 11 8 5 9 -25 6 -22 -3 -51 -8 -65 -12 -19 -5 -22 -4 -10 4 8 6
10 11 4 11 -6 0 -14 -3 -17 -7 -13 -13 -112 -43 -115 -35 -1 5 -17 7 -35 5
-25 -4 -29 -2 -17 6 13 10 13 11 0 11 -8 0 -22 -5 -30 -10 -12 -8 -12 -10 -1
-10 8 0 12 -2 9 -5 -3 -4 -18 -3 -32 1 -23 5 -24 8 -11 18 13 9 10 11 -15 12
-17 1 -27 -3 -23 -9 3 -6 1 -7 -5 -3 -6 4 -25 0 -41 -9 -17 -8 -43 -15 -58
-15 -15 0 -48 -7 -72 -16 -24 -8 -46 -13 -48 -10 -3 3 28 15 68 27 78 23 134
47 126 55 -2 3 -17 -1 -33 -7 -16 -6 -42 -11 -58 -11 -16 1 -45 -6 -64 -14
-19 -8 -42 -14 -51 -13 -9 0 2 7 23 15 22 8 42 17 45 20 10 9 -52 -8 -79 -22
-43 -23 -133 -54 -142 -48 -4 3 -15 -2 -24 -11 -15 -15 -14 -15 12 -10 16 4
42 11 58 16 16 5 36 9 45 9 31 -1 -33 -28 -109 -45 -148 -34 -276 -66 -342
-86 -57 -16 -72 -26 -93 -57 -15 -22 -26 -52 -26 -77 -1 -23 -4 -30 -6 -17 -2
12 -9 22 -14 22 -6 0 -8 -4 -4 -9 3 -6 -4 -15 -15 -21 -13 -7 -20 -7 -20 0 0
5 -4 10 -10 10 -10 0 -4 -76 10 -122 5 -17 5 -28 0 -28 -5 0 -12 17 -16 38 -3
20 -10 51 -15 67 -8 27 -8 26 -6 -12 2 -26 -1 -39 -7 -33 -13 13 -46 -32 -51
-70 -2 -16 0 -30 4 -30 10 0 47 41 54 60 4 11 6 9 6 -5 1 -26 -8 -37 -41 -54
-15 -8 -31 -24 -34 -35 -4 -12 -22 -39 -41 -61 -83 -96 -205 -317 -186 -336
11 -11 79 3 116 23 14 7 24 5 36 -6 13 -12 20 -13 29 -4 9 9 12 4 12 -25 0
-20 5 -37 11 -37 5 0 7 5 4 10 -3 6 1 10 9 10 8 0 20 9 26 19 15 28 12 35 -6
20 -13 -11 -12 -4 5 29 19 37 20 43 6 48 -12 5 -10 12 12 41 61 77 119 129
160 142 23 8 40 18 37 22 -2 5 10 12 28 17 l33 8 31 -85 c72 -200 116 -249
269 -295 90 -27 312 -39 502 -27 272 17 374 36 475 87 l47 24 -25 -37 c-24
-36 -28 -57 -9 -52 39 11 139 188 216 381 61 154 95 221 121 237 57 35 148 35
145 -1 -1 -14 -7 -18 -20 -14 -18 4 -18 4 -1 -15 10 -11 12 -19 6 -19 -7 0
-12 -5 -12 -11 0 -5 4 -8 9 -4 5 3 12 1 16 -5 4 -6 -6 -10 -22 -10 l-28 -1 30
-14 c17 -7 23 -14 15 -15 -12 0 -12 -3 3 -14 9 -7 17 -17 17 -21 0 -5 8 -17
18 -28 16 -19 16 -20 -4 -15 -20 5 -21 4 -6 -26 9 -17 18 -33 21 -36 9 -8 7
-70 -2 -70 -5 0 2 -15 14 -32 16 -23 18 -29 6 -19 -22 17 -34 7 -17 -14 11
-14 7 -19 -12 -16 -5 0 -8 -4 -8 -10 0 -6 7 -9 15 -5 10 4 15 -1 15 -15 0 -27
18 -60 44 -82 20 -16 20 -17 1 -11 -18 6 -17 4 4 -16 15 -15 20 -25 13 -28
-13 -4 12 -62 27 -62 5 0 7 -13 5 -29 -2 -20 2 -31 14 -36 13 -5 14 -8 3 -14
-11 -7 -11 -14 3 -42 18 -36 17 -42 -8 -33 -12 5 -14 9 -6 14 8 5 7 10 -4 19
-12 11 -15 9 -14 -11 2 -31 25 -57 47 -51 11 3 21 -2 26 -14 12 -30 14 -63 3
-63 -6 0 -8 -9 -5 -20 3 -10 0 -21 -7 -24 -7 -3 -6 -8 4 -16 12 -9 11 -10 -7
-5 -18 5 -22 3 -17 -9 5 -12 2 -15 -10 -10 -9 3 -16 2 -16 -4 0 -6 6 -13 13
-15 6 -3 1 -6 -13 -7 -14 -1 -19 -4 -12 -7 20 -8 14 -18 -30 -47 -23 -15 -59
-29 -81 -30 -22 -2 -45 -10 -51 -18 -6 -8 -17 -17 -24 -19 -9 -3 -7 -14 8 -44
18 -36 27 -62 29 -89 1 -5 19 -6 40 -2 33 5 44 2 71 -20 20 -17 29 -32 25 -43
-3 -9 2 -26 10 -37 22 -30 18 -40 -8 -16 -24 23 -51 32 -29 10 7 -7 12 -18 12
-26 0 -11 -3 -11 -15 2 -8 8 -15 19 -15 24 0 6 -7 13 -16 16 -8 3 -12 2 -9 -4
12 -20 -7 -32 -25 -15 -17 15 -18 14 -16 -12 1 -15 6 -35 11 -43 8 -13 7 -13
-8 -1 -10 8 -16 19 -14 25 2 6 -4 22 -14 35 -10 13 -16 27 -13 32 3 5 1 9 -5
9 -5 0 -12 -4 -16 -10 -3 -5 -12 -7 -20 -4 -10 4 -12 0 -8 -17 5 -17 3 -20 -7
-14 -9 6 -12 4 -8 -7 4 -8 1 -15 -6 -15 -8 0 -11 10 -9 26 l4 26 -13 -23 c-8
-12 -17 -19 -21 -16 -4 4 -7 3 -7 -2 0 -6 -7 -19 -16 -30 -15 -18 -15 -18 -10
11 5 30 4 30 -6 4 -6 -14 -20 -30 -31 -35 -11 -5 -23 -15 -25 -23 -3 -8 0 -11
6 -7 5 3 12 -1 16 -9 7 -18 -3 -19 -26 -1 -16 12 -16 15 7 36 37 35 30 48 -7
14 -32 -28 -32 -28 -9 -2 14 16 21 31 18 35 -4 4 7 22 25 40 40 42 27 43 -17
2 -18 -17 -37 -31 -41 -31 -5 0 -15 -4 -22 -10 -7 -6 -16 -8 -19 -4 -4 4 -1
11 7 16 8 6 11 10 7 10 -20 0 -68 -43 -63 -56 3 -8 1 -14 -4 -14 -17 0 -70
-64 -65 -78 4 -10 0 -10 -16 -1 -17 9 -25 7 -45 -12 -13 -12 -24 -28 -24 -35
0 -8 -6 -11 -16 -7 -13 5 -5 16 37 54 32 28 53 55 51 64 -2 12 2 15 16 11 20
-7 61 28 48 41 -3 4 -14 -4 -23 -16 -11 -17 -18 -20 -23 -10 -6 9 -18 3 -44
-23 -20 -20 -36 -40 -36 -45 0 -6 -9 -18 -20 -28 -18 -17 -20 -17 -14 -2 3 9
11 17 17 17 6 0 7 3 4 6 -11 11 -37 -17 -38 -40 -1 -19 -2 -18 -9 4 -4 14 -8
19 -9 12 -1 -7 -13 -17 -27 -22 -14 -6 -23 -14 -19 -19 3 -5 2 -12 -3 -15 -15
-9 -10 28 7 49 16 20 16 20 -5 3 -11 -10 -25 -18 -31 -18 -15 0 -37 -28 -40
-53 -2 -12 -10 -29 -19 -37 -14 -13 -14 -12 0 15 8 16 14 31 12 32 -7 7 -36
-10 -30 -18 3 -5 -2 -6 -10 -3 -23 9 -20 17 12 38 16 11 19 15 7 11 -11 -4
-27 -8 -35 -9 -25 -4 -50 -18 -50 -28 0 -5 6 -6 13 -2 6 4 1 -5 -12 -19 -14
-15 -27 -27 -29 -27 -3 0 3 9 13 20 20 22 10 27 -14 7 -9 -7 -36 -26 -61 -42
-32 -20 -40 -22 -27 -8 34 39 15 37 -21 -2 -20 -23 -31 -34 -24 -25 17 23 15
35 -4 19 -13 -10 -17 -10 -25 2 -7 12 -9 12 -9 -1 -1 -8 -23 -37 -50 -65 -28
-27 -50 -54 -50 -59 0 -6 7 -1 15 10 14 18 14 17 9 -13 -8 -39 6 -43 31 -10
17 22 17 22 2 -3 -7 -14 -16 -35 -20 -48 -4 -19 -3 -21 9 -11 17 14 17 9 4
-25 -9 -24 -8 -25 23 -19 18 3 34 10 36 15 1 5 9 1 16 -8 11 -16 12 -15 10 10
-3 21 -1 26 8 17 16 -16 32 -14 18 3 -9 11 -8 15 4 20 9 3 13 2 10 -4 -3 -6
-1 -10 5 -10 6 0 8 -4 5 -10 -3 -6 -2 -10 4 -10 5 0 12 6 15 13 3 6 3 1 2 -13
-2 -14 2 -36 9 -49 11 -21 14 -22 21 -8 11 20 128 40 149 26 18 -12 60 -14 58
-3 -1 6 3 11 10 11 32 2 98 16 157 32 153 44 253 56 487 56 94 0 169 3 167 6
-2 4 10 9 27 11 24 4 38 -1 58 -19 25 -24 25 -24 1 -9 -39 25 -48 18 -12 -10
35 -28 40 -41 17 -41 -8 0 -11 5 -8 10 4 6 1 7 -6 2 -9 -5 -11 -19 -6 -42 4
-24 3 -33 -5 -28 -5 3 -8 10 -5 15 3 5 -4 15 -16 24 -12 8 -19 19 -15 24 3 5
-1 18 -9 28 -15 19 -15 19 -8 0 4 -13 3 -17 -5 -12 -7 4 -12 3 -12 -3 0 -5 4
-11 10 -13 6 -2 6 -15 2 -33 -8 -30 -8 -30 -15 -5 -3 13 -8 22 -11 19 -9 -8
16 -79 26 -73 4 3 8 -2 8 -11 0 -9 4 -14 9 -11 5 3 7 16 5 29 -2 12 2 6 10
-13 12 -28 15 -31 15 -12 1 12 5 22 11 22 5 0 7 -6 5 -12 -4 -9 5 -13 25 -14
40 -2 48 -11 24 -30 -10 -8 -14 -13 -8 -10 7 3 14 -5 17 -20 4 -23 2 -25 -19
-20 -19 5 -22 3 -18 -11 3 -10 -2 -7 -10 7 -8 14 -16 21 -16 15 0 -5 -4 -4 -9
4 -15 23 -31 3 -21 -25 7 -17 7 -23 0 -19 -6 3 -10 12 -10 19 0 21 -37 50 -45
36 -6 -9 -10 -9 -17 1 -8 11 -11 11 -15 1 -4 -10 -8 -10 -21 0 -13 11 -15 10
-9 -10 5 -22 4 -23 -12 -8 -23 21 -35 20 -27 -1 6 -14 3 -14 -15 3 l-22 19 13
-25 c13 -25 13 -25 -8 -7 -11 10 -23 14 -26 9 -3 -5 -19 -8 -35 -6 -22 3 -29
0 -25 -10 3 -7 -2 -16 -11 -20 -9 -3 -13 -2 -10 4 3 6 2 10 -4 10 -5 0 -15 -8
-20 -17 -9 -16 -10 -15 -11 7 0 33 -14 13 -36 -55 -10 -27 -38 -75 -63 -105
-42 -51 -42 -52 -8 -21 20 19 37 30 37 24 0 -7 -4 -14 -10 -18 -5 -3 -7 -12
-4 -19 3 -8 1 -17 -5 -21 -6 -3 -11 -11 -11 -16 0 -5 11 -2 26 7 14 9 23 23
20 30 -3 7 2 18 11 26 14 11 15 10 8 -12 -13 -40 -67 -131 -81 -137 -8 -3 -14
-10 -14 -17 1 -6 19 9 42 34 l41 45 -23 -42 c-13 -24 -28 -43 -34 -43 -5 0 -6
-3 -2 -7 4 -4 16 3 26 17 15 20 21 23 31 13 11 -11 10 -13 -4 -13 -9 0 -17 -8
-18 -17 -1 -10 -3 -49 -4 -88 -4 -90 -12 -145 -21 -153 -4 -4 -4 5 0 21 4 17
2 27 -5 27 -11 0 -10 -17 7 -105 3 -16 2 -26 -2 -22 -4 4 -14 -2 -21 -13 -8
-11 -19 -18 -24 -15 -5 4 -9 -13 -10 -37 l-1 -43 -11 30 -11 30 -7 -30 -7 -30
-1 33 c-1 21 -5 31 -12 26 -6 -3 -8 -17 -5 -30 7 -25 -22 -96 -36 -88 -4 3 -2
17 6 32 7 15 16 53 20 86 6 52 5 58 -11 52 -15 -6 -15 -5 2 14 10 11 16 22 13
25 -3 3 -28 -20 -57 -50 -29 -30 -57 -53 -62 -50 -10 7 -7 41 5 52 5 5 6 -4 2
-19 -3 -16 -4 -28 -1 -28 8 0 35 71 35 91 0 26 -16 24 -24 -4 -5 -17 -8 -19
-15 -8 -7 11 -14 9 -35 -15 l-26 -29 6 30 c5 28 4 29 -9 12 -14 -17 -15 -17
-13 6 0 14 6 23 11 21 6 -3 16 6 24 18 l14 23 -22 -20 -22 -19 5 29 c6 29 6
29 -5 5 -6 -14 -12 -33 -14 -42 -5 -26 -37 -89 -42 -84 -2 2 3 20 11 39 14 34
13 36 -5 42 -12 4 -18 13 -15 20 3 9 0 12 -9 8 -8 -3 -18 2 -21 11 -3 9 -10
16 -16 16 -5 0 -7 -4 -4 -8 3 -5 -8 -22 -24 -37 -17 -16 -30 -33 -30 -37 0 -5
11 4 25 19 13 15 25 23 25 17 0 -6 -7 -17 -15 -24 -9 -7 -14 -19 -11 -26 3 -7
-2 -15 -10 -18 -9 -4 -12 -2 -8 5 4 7 -1 9 -15 4 -17 -5 -20 -3 -14 12 6 17 5
17 -15 -1 -12 -11 -25 -17 -28 -13 -9 9 16 48 26 42 6 -4 6 3 1 18 -7 17 -6
29 2 37 10 10 8 12 -8 6 -17 -5 -18 -4 -5 6 8 7 23 25 33 40 14 22 14 26 2 22
-8 -4 -15 -12 -15 -19 0 -7 -7 -15 -15 -19 -22 -8 -19 21 4 34 19 10 25 50 8
50 -5 0 -7 -6 -4 -14 3 -8 -1 -17 -9 -20 -18 -7 -18 14 0 39 11 17 11 22 0 32
-8 8 -15 9 -19 3 -3 -6 -1 -10 5 -10 6 0 8 -4 5 -10 -20 -33 -28 10 -9 54 6
15 4 18 -7 12 -8 -4 -6 -1 4 7 9 8 17 17 17 21 0 10 -39 -12 -97 -56 -29 -21
-53 -34 -53 -28 0 11 66 78 96 97 15 10 13 10 -13 2 -35 -12 -123 -90 -123
-110 0 -8 4 -8 15 1 13 11 14 10 9 -4 -4 -11 -14 -15 -31 -12 -18 4 -23 1 -19
-9 5 -14 -17 -39 -27 -29 -3 3 -3 13 0 22 4 15 3 15 -6 2 -6 -9 -7 -18 -1 -24
15 -15 12 -30 -11 -44 -18 -12 -19 -11 -10 7 17 31 13 35 -9 10 -17 -21 -19
-21 -13 -4 3 11 13 30 21 43 8 12 12 26 8 30 -4 3 -11 0 -16 -8 -6 -8 -10 -10
-10 -4 0 6 7 17 15 24 12 10 15 10 15 0 0 -9 3 -10 13 -1 8 6 16 8 19 5 3 -3
5 2 4 12 0 9 4 19 11 21 7 3 10 -4 6 -19 -4 -22 -4 -22 11 -4 11 14 13 22 5
27 -8 5 -8 8 0 13 6 4 11 2 11 -5 0 -7 3 -9 8 -5 4 4 7 13 7 19 0 7 10 16 22
22 13 5 25 15 27 22 7 17 -23 0 -79 -43 -22 -17 -50 -34 -62 -38 -12 -4 -31
-18 -42 -32 -16 -20 -20 -21 -25 -8 -3 9 -4 19 -1 24 3 4 -2 10 -10 14 -9 3
-15 0 -15 -8 0 -8 -3 -22 -7 -32 -4 -12 -3 -15 5 -10 7 4 12 2 12 -3 0 -13
-10 -14 -29 -2 -9 6 -10 11 -2 15 6 4 11 17 10 29 l0 22 -9 -21 c-11 -28 -30
-40 -23 -15 3 10 0 22 -6 25 -6 4 -11 2 -11 -5 0 -7 -3 -10 -6 -6 -4 3 4 23
16 44 l22 38 -26 -30 c-30 -34 -33 -28 -11 18 l16 32 -20 -23 c-10 -12 -23
-22 -27 -22 -4 0 -3 5 4 12 14 14 16 52 3 43 -6 -3 -6 6 -1 25 7 25 6 30 -8
30 -13 0 -14 2 -3 9 11 7 11 9 0 13 -11 4 -10 10 5 32 9 15 15 30 12 33 -3 3
-15 -10 -26 -28 -18 -28 -20 -30 -15 -9 4 14 11 29 15 34 11 11 1 38 -11 31
-4 -3 -6 -12 -2 -20 3 -8 0 -15 -6 -15 -6 0 -11 -9 -11 -21 0 -14 -5 -19 -14
-16 -7 3 -19 0 -26 -6 -10 -9 -11 -9 -4 3 4 8 9 21 11 30 1 8 5 30 9 49 5 26
4 32 -6 26 -10 -6 -12 -4 -7 9 5 14 3 17 -8 12 -19 -7 -19 8 0 24 22 18 19 33
-4 20 -25 -13 -34 -13 -26 1 10 15 13 59 5 64 -4 2 -12 -7 -19 -22 -6 -14 -14
-24 -16 -21 -3 2 4 22 15 43 26 51 27 69 1 53 -10 -6 -18 -22 -18 -35 0 -14
-6 -30 -13 -36 -10 -10 -11 -8 -6 8 5 11 9 29 10 40 2 11 8 30 14 42 19 35 14
41 -8 8 -14 -20 -20 -25 -20 -13 0 9 5 20 10 23 6 3 10 11 10 16 0 18 -20 -2
-34 -34 -12 -28 -14 -29 -15 -9 -1 12 -6 22 -12 22 -6 0 -7 -8 -3 -22 9 -25 9
-66 1 -75 -7 -7 -27 6 -27 18 0 5 5 8 11 6 6 -1 14 4 16 11 3 9 -2 12 -13 10
-16 -2 -19 3 -16 27 l2 30 -15 -25 c-10 -18 -14 -21 -15 -8 0 9 10 24 22 32
20 14 18 21 -4 17 -8 -1 -2 17 30 79 21 40 21 42 3 20 -11 -14 -29 -43 -40
-65 l-19 -40 2 35 c2 19 13 54 25 77 12 24 20 43 18 43 -2 0 -26 -34 -53 -74
-26 -41 -50 -73 -52 -71 -2 2 4 15 13 29 13 20 14 29 5 43 -10 16 -11 16 -6 1
3 -10 1 -20 -3 -22 -7 -5 -8 12 -2 47 0 5 6 5 12 1 7 -4 10 -1 7 7 -3 8 -18
14 -34 14 -22 0 -30 -5 -32 -22 -3 -20 -32 -55 -32 -38 0 18 25 91 35 105 27
35 26 42 -3 12 -16 -19 -33 -32 -36 -30 -4 2 -13 -10 -21 -26 -13 -24 -13 -31
-3 -38 10 -7 10 -11 1 -14 -7 -3 -9 -12 -6 -20 3 -8 0 -14 -7 -14 -7 0 -9 -8
-5 -20 9 -30 -4 -24 -16 7 -7 18 -6 30 1 37 5 5 10 16 10 24 0 9 -7 6 -20 -9
-10 -13 -19 -19 -20 -14 0 6 5 16 11 22 12 12 3 53 -11 53 -5 0 -8 6 -6 13 3
6 7 26 11 42 l6 30 -17 -24 c-17 -23 -18 -23 -31 -5 -13 18 -14 17 -8 -9 6
-22 2 -32 -18 -51 -23 -21 -25 -22 -36 -4 -15 24 -14 33 3 19 10 -9 10 -1 -3
36 -15 48 -15 48 -22 18 -6 -25 -7 -26 -8 -7 0 13 7 36 18 50 18 27 18 27 -7
52 -17 17 -23 20 -19 8 4 -12 2 -15 -7 -12 -8 3 -12 14 -8 26 3 14 1 19 -6 14
-9 -5 -11 4 -7 31 l4 38 -18 -24 c-16 -21 -19 -21 -24 -6 -9 22 -8 33 1 18 5
-8 15 4 28 33 l21 45 -25 -23 c-21 -19 -24 -20 -19 -5 5 13 3 17 -5 15 -15 -5
-34 -115 -23 -126 4 -4 10 -1 12 6 3 6 8 10 13 7 10 -6 0 -54 -13 -62 -6 -4
-8 2 -5 15 8 29 -20 38 -31 9 -5 -12 -6 -26 -3 -31 3 -5 0 -6 -5 -3 -6 4 -8
17 -6 30 3 13 -2 29 -11 36 -8 7 -12 19 -9 27 3 8 0 14 -6 14 -8 0 -9 -13 -5
-40 8 -47 -11 -56 -21 -10 -7 30 15 77 29 63 4 -4 4 0 1 9 -4 9 1 30 10 47 9
19 11 31 5 31 -6 0 -20 -21 -30 -46 -11 -25 -23 -43 -27 -41 -5 3 -6 -15 -4
-40 2 -32 -2 -50 -15 -66 -16 -19 -16 -20 -1 -8 22 18 22 4 -3 -36 -10 -18
-15 -35 -11 -38 5 -2 11 4 14 15 3 11 10 20 17 20 6 0 8 -5 3 -12 -4 -7 -8
-44 -9 -83 -1 -38 -5 -79 -9 -90 -5 -16 -5 -17 4 -5 13 19 14 5 2 -38 -9 -28
-7 -32 10 -32 14 0 21 9 26 30 10 52 19 33 18 -37 -2 -77 2 -96 19 -86 6 3 6
1 -1 -8 -7 -7 -13 -22 -13 -34 0 -29 25 -96 33 -88 4 3 7 1 7 -5 0 -6 -7 -18
-16 -27 -15 -14 -14 -18 2 -43 31 -44 46 -86 34 -90 -5 -2 -8 -8 -5 -12 3 -5
-3 -18 -14 -29 -11 -11 -17 -23 -12 -25 5 -3 11 -26 14 -52 2 -25 10 -51 17
-57 10 -9 12 -8 7 4 -3 9 0 16 7 16 6 0 12 -8 12 -18 0 -10 -4 -15 -8 -13 -4
3 -8 0 -8 -5 0 -6 5 -11 10 -11 6 0 10 -4 10 -9 0 -5 5 -22 11 -38 7 -15 13
-41 15 -57 5 -38 32 -79 46 -70 6 4 9 3 5 -2 -3 -5 14 -33 39 -63 24 -29 44
-57 44 -61 0 -4 8 -7 18 -6 9 0 17 -6 17 -15 0 -24 65 -95 74 -80 5 7 12 3 21
-14 15 -28 33 -34 23 -7 -7 18 -5 17 17 -12 10 -13 10 -17 3 -12 -7 4 -13 2
-13 -3 0 -6 8 -11 18 -11 10 0 25 -11 32 -25 7 -14 17 -25 22 -25 12 0 108
-97 108 -109 0 -6 14 -17 30 -26 17 -9 30 -20 30 -25 0 -5 16 -20 35 -32 19
-13 35 -29 35 -35 0 -7 5 -13 10 -13 6 0 24 -14 40 -30 16 -17 34 -30 39 -30
6 0 15 -8 20 -17 10 -17 10 -17 11 0 0 10 5 15 10 12 6 -4 8 -10 5 -15 -3 -5
11 -16 31 -25 24 -10 34 -20 31 -29 -4 -9 4 -21 19 -30 13 -9 24 -12 24 -6 0
5 -4 10 -10 10 -5 0 -10 7 -10 15 0 23 30 -9 63 -67 15 -26 33 -50 40 -54 8
-5 7 -2 -2 9 -8 10 -11 20 -8 24 4 3 0 11 -7 17 -18 14 -33 62 -17 52 6 -4 11
-13 11 -20 0 -15 91 -76 114 -76 9 0 16 -4 16 -8 0 -5 13 -7 29 -4 22 3 32 -1
40 -17 7 -12 16 -21 22 -21 6 0 7 5 4 10 -10 15 11 12 24 -4 7 -8 27 -18 44
-22 18 -3 38 -11 45 -17 9 -7 16 -7 24 1 9 9 8 12 -5 12 -9 0 -17 4 -17 8 0 5
10 8 23 7 12 -1 21 -5 19 -10 -8 -19 104 -68 138 -60 31 7 103 -10 135 -32 11
-7 31 -13 45 -13 14 0 31 -4 39 -9 8 -5 24 -6 35 -2 28 11 46 3 46 -19 0 -22
22 -39 28 -22 4 12 32 17 32 6 0 -4 -8 -13 -17 -20 -15 -11 -16 -13 -2 -14 8
0 25 9 37 20 26 25 44 26 40 3 -4 -25 29 -28 54 -6 20 18 21 18 13 -6 -5 -18
-4 -22 5 -16 9 6 11 4 4 -6 -18 -30 -14 -44 16 -46 17 -1 30 2 30 7 0 6 5 10
10 10 6 0 10 -7 10 -15 0 -16 1 -16 37 -20 31 -3 53 -29 46 -54 -3 -13 -1 -21
6 -21 7 0 9 5 5 11 -4 7 -1 10 7 7 7 -2 16 -15 19 -29 5 -19 12 -23 31 -21 24
3 26 1 24 -43 -2 -33 2 -48 14 -55 13 -7 10 -10 -14 -11 -16 -1 -33 -1 -37 0
-15 2 -8 -27 7 -33 12 -4 13 -10 3 -31 -6 -14 -18 -25 -27 -26 -10 0 -12 -2
-3 -6 21 -8 13 -33 -10 -34 -17 -1 -19 -2 -5 -6 9 -2 17 -8 17 -13 0 -5 -7 -7
-15 -4 -11 5 -15 -2 -15 -26 0 -20 -7 -38 -17 -46 -17 -12 -16 -13 5 -14 32 0
27 -20 -5 -21 -16 0 -22 -3 -15 -6 16 -6 16 -23 -1 -23 -7 0 -18 -9 -25 -20
-11 -18 -10 -20 9 -20 18 0 20 -2 9 -15 -7 -9 -19 -14 -26 -11 -31 12 -21 -14
13 -34 35 -20 36 -23 20 -35 -18 -13 -18 -14 -1 -23 15 -9 16 -13 5 -26 -11
-13 -11 -16 0 -17 8 0 3 -5 -11 -11 -14 -6 -29 -10 -35 -9 -5 1 -4 -3 3 -10
16 -17 15 -29 -3 -29 -8 0 -15 5 -15 12 0 9 -3 9 -12 0 -10 -10 -10 -15 1 -21
11 -7 11 -12 -1 -30 -8 -11 -18 -18 -21 -14 -4 3 -7 1 -7 -6 0 -9 9 -12 24 -9
20 4 24 1 23 -16 0 -12 -6 -24 -11 -28 -6 -4 -1 -6 12 -5 17 1 21 6 16 22 -4
11 -3 17 1 13 11 -11 15 -59 4 -52 -5 3 -9 -1 -9 -9 0 -18 24 -29 45 -21 8 4
15 1 15 -5 0 -6 -10 -11 -22 -11 -30 0 -68 -11 -68 -19 0 -7 73 -31 97 -31 9
0 25 8 36 18 19 16 20 16 14 0 -6 -17 31 -18 689 -18 l694 0 -52 53 c-48 48
-75 84 -121 158 -22 37 -143 126 -200 147 l-49 19 -35 104 c-32 98 -100 235
-141 288 -19 23 -19 23 -36 -105 -17 -126 -31 -180 -25 -97 2 23 0 45 -4 49
-11 11 -8 26 3 19 10 -6 12 5 15 85 1 19 5 46 10 60 11 33 13 59 4 57 -4 -1
-7 3 -7 8 0 6 5 9 10 7 7 -2 8 8 4 25 -12 50 -11 58 3 55 11 -2 10 3 -3 23
-16 24 -16 25 5 25 19 0 21 4 15 33 -4 23 -3 28 4 17 8 -13 10 -12 10 3 0 10
-4 27 -10 37 -12 23 -2 59 11 38 7 -10 9 -10 9 0 0 7 -8 24 -17 38 -13 21 -14
27 -3 34 7 4 9 13 5 20 -5 9 -4 11 3 6 7 -4 12 -3 12 2 0 6 -8 13 -17 17 -16
7 -15 9 7 15 l25 7 -25 11 c-23 10 -23 11 -4 11 11 1 21 7 21 15 0 8 -6 12
-14 9 -7 -3 -13 -1 -13 5 0 16 33 24 43 10 6 -9 7 -8 3 5 -3 10 -6 27 -6 37 0
10 -8 26 -17 36 -16 16 -16 16 3 10 15 -5 23 0 31 16 14 29 16 78 3 78 -5 0
-7 7 -3 16 5 13 7 13 14 2 7 -10 9 -9 9 4 0 9 -9 19 -20 23 -18 6 -19 8 -4 30
9 13 13 29 10 34 -4 5 1 14 11 19 15 9 16 16 5 59 -11 52 -7 93 11 93 6 0 7 3
4 7 -4 3 -2 12 4 20 9 10 8 13 -1 13 -9 0 -10 3 -1 14 6 7 9 21 5 30 -3 9 -1
16 5 16 6 0 8 6 5 14 -3 8 4 22 15 32 10 11 22 31 26 46 4 15 22 44 41 63 19
20 37 48 41 63 3 15 14 38 25 51 10 13 18 31 18 39 0 9 8 24 18 35 9 11 11 17
5 13 -7 -4 -13 -2 -13 3 0 6 5 11 10 11 6 0 10 9 10 19 0 11 7 26 15 35 8 8
15 21 15 29 0 27 11 46 24 41 13 -5 41 72 39 103 0 7 4 11 11 10 6 -1 11 5 11
13 0 25 28 104 41 117 8 8 10 28 7 54 -4 28 -2 44 7 49 7 4 13 22 14 39 1 18
6 29 12 27 6 -2 11 9 11 28 0 55 16 166 23 166 3 0 5 15 3 33 -3 24 -2 29 6
17 9 -12 11 -11 11 8 0 13 4 21 8 18 4 -2 6 11 4 31 -3 21 0 38 8 43 9 6 9 12
0 29 -6 12 -9 30 -7 39 3 14 6 12 16 -8 11 -24 11 -24 5 5 -10 47 -6 112 9
148 30 70 46 127 36 132 -13 8 -12 45 2 45 6 0 8 -9 4 -20 -3 -11 -2 -20 4
-20 11 0 48 113 86 270 16 63 41 143 57 177 27 60 36 89 20 68 -4 -5 -16 -17
-26 -25 -18 -14 -18 -14 -8 5 13 25 26 75 23 93 -1 8 9 29 23 47 24 31 26 42
26 132 0 140 -7 170 -39 181 -16 6 -36 6 -51 0 -31 -11 -101 -78 -94 -90 3 -4
9 -6 13 -4 15 10 4 -63 -12 -79 -18 -18 -23 -40 -7 -30 13 8 13 -1 0 -26 -8
-14 -7 -19 3 -19 15 0 42 27 49 50 4 11 9 6 19 -15 7 -16 16 -32 20 -35 10 -8
18 -51 12 -66 -10 -28 -26 -14 -19 17 5 27 4 30 -9 19 -8 -7 -15 -19 -15 -27
0 -8 -6 -26 -14 -41 -10 -20 -16 -84 -20 -225 -6 -204 -21 -331 -38 -321 -6 4
-6 17 -2 33 7 22 11 155 13 465 1 37 -5 69 -14 83 -8 12 -15 31 -15 41 0 10
-3 22 -7 26 -5 4 -9 12 -9 17 -1 5 -2 13 -3 19 0 5 -8 7 -18 3 -13 -5 -15 -2
-10 16 l6 23 -26 -23 c-14 -13 -22 -17 -17 -8 11 20 130 153 167 187 15 14 27
31 27 39 0 7 6 13 14 13 7 0 19 7 26 15 10 13 10 19 -5 35 -36 39 -143 24
-213 -31 -26 -20 -52 -15 -52 10 0 9 17 50 37 91 33 68 37 84 39 169 2 51 6
96 9 99 9 10 5 43 -5 37 -15 -9 -12 2 6 31 14 20 16 40 10 107 -6 73 -9 84
-33 104 -24 20 -26 28 -24 80 2 66 2 66 -2 111 -2 17 0 32 5 32 5 0 6 10 3 23
-4 13 -7 30 -8 38 -2 8 -6 20 -10 27 -5 7 -3 12 4 12 7 0 5 8 -6 20 -14 16
-15 20 -4 20 11 0 15 13 14 53 0 28 -4 58 -8 65 -5 6 -6 16 -3 20 3 5 -2 21
-9 36 -13 25 -13 27 1 22 10 -4 13 -2 8 6 -4 7 -8 33 -9 58 -1 25 -4 51 -8 57
-4 6 -4 18 -1 27 3 9 1 16 -5 16 -6 0 -8 7 -5 15 4 8 2 15 -2 15 -5 0 -10 26
-11 58 -1 31 -5 75 -9 97 -3 22 -7 52 -7 68 0 15 -4 27 -9 27 -5 0 -7 4 -4 9
8 12 -25 91 -38 91 -6 0 -4 5 4 10 11 7 12 10 2 10 -9 0 -11 7 -7 21 5 14 1
25 -12 34 -14 11 -15 14 -3 15 11 0 12 2 3 8 -7 4 -14 17 -16 27 -2 11 -9 33
-16 48 -6 16 -9 33 -5 38 3 5 -2 12 -10 15 -9 3 -13 10 -10 15 7 12 -17 89
-28 89 -4 0 -6 16 -4 35 3 19 1 35 -4 35 -4 0 -6 9 -3 20 4 16 0 20 -18 20
-18 0 -20 3 -10 9 7 5 11 14 7 20 -5 7 -1 8 11 4 15 -6 16 -5 3 9 -8 8 -21 13
-28 11 -8 -4 -10 0 -6 12 6 15 3 16 -17 10 -20 -7 -22 -5 -13 6 19 24 25 61 9
55 -10 -3 -12 0 -8 11 5 13 2 15 -11 10 -14 -6 -17 -3 -12 9 3 8 3 27 0 40 -5
20 -9 22 -20 13 -11 -9 -14 -7 -14 9 0 11 6 23 13 26 6 3 -1 4 -18 0 l-29 -5
19 22 c20 22 20 22 -1 15 -19 -6 -23 -2 -28 29 -4 19 -12 35 -17 35 -6 0 -8 9
-4 20 4 11 2 20 -4 20 -6 0 -8 6 -5 14 4 11 0 13 -17 9 -15 -4 -20 -3 -15 5 8
13 -20 6 -41 -11 -15 -11 -17 2 -4 22 7 10 2 20 -16 34 -22 18 -28 19 -47 7
-20 -12 -20 -12 -3 7 9 11 17 28 17 38 0 18 0 18 -14 0 -7 -10 -28 -20 -45
-21 -28 -2 -31 0 -26 19 4 12 19 33 33 46 l27 23 -37 -22 c-21 -12 -38 -18
-38 -15 0 4 -8 1 -17 -6 -16 -13 -17 -12 -4 4 8 10 15 30 16 43 1 23 0 24 -12
8 -7 -10 -13 -22 -13 -27 0 -4 -5 -5 -10 -2 -6 4 -8 15 -5 26 4 11 2 19 -5 19
-6 0 -8 5 -4 13 5 7 1 6 -10 -3 -16 -13 -20 -12 -35 6 -23 29 -44 34 -59 15
-12 -14 -13 -12 -7 12 l6 29 -30 -21 c-41 -29 -51 -27 -44 13 4 28 2 34 -18
39 -13 4 -26 1 -30 -5 -11 -17 -39 -1 -39 21 0 11 -4 23 -10 26 -5 3 -10 16
-10 28 0 24 -16 13 -23 -18 -4 -18 -5 -18 -6 3 0 12 -5 22 -10 22 -4 0 -7 -12
-5 -26 1 -16 -2 -24 -9 -21 -7 2 -11 12 -10 21 0 10 -10 22 -23 28 -13 6 -24
16 -24 22 0 6 -4 5 -9 -3 -7 -10 -13 -11 -30 -2 -20 11 -21 10 -15 -13 8 -32
-11 -35 -20 -3 -5 18 -8 20 -16 7 -6 -10 -10 -11 -10 -2 0 6 -7 12 -15 12 -8
0 -15 5 -15 11 0 6 -7 8 -16 5 -9 -4 -24 -1 -32 6 -13 11 -15 10 -9 -4 10 -28
-10 -21 -35 12 -19 27 -58 45 -43 20 14 -23 -10 -7 -62 43 -36 33 -50 42 -38
25 9 -16 21 -28 26 -28 5 0 9 -5 9 -12 0 -6 -13 0 -28 15 -16 15 -31 24 -35
21 -4 -4 -23 6 -43 21 -21 16 -34 23 -30 17 14 -23 -17 -12 -64 22 -39 28 -47
31 -43 15 6 -22 -12 -26 -21 -4 -7 20 -26 19 -26 -1 0 -14 -3 -14 -15 -4 -12
10 -15 10 -15 -1 0 -7 -10 -3 -25 11 -14 13 -28 20 -32 17 -3 -4 -1 -7 5 -7 7
0 12 -4 12 -10 0 -6 -10 -5 -25 2 -14 6 -25 16 -25 22 0 6 -9 17 -21 24 -12 8
-18 9 -14 3z m-711 -170 c4 -5 -3 -7 -14 -4 -23 6 -26 13 -6 13 8 0 17 -4 20
-9z m763 -653 c-3 -8 -6 -5 -6 6 -1 11 2 17 5 13 3 -3 4 -12 1 -19z m188 -56
c-3 -3 -11 0 -18 7 -9 10 -8 11 6 5 10 -3 15 -9 12 -12z m45 -6 c0 -2 -7 -7
-16 -10 -8 -3 -12 -2 -9 4 6 10 25 14 25 6z m390 -244 c0 -14 -11 -21 -26 -15
-8 3 -11 9 -8 14 7 11 34 12 34 1z m67 -78 c-3 -4 4 -15 16 -25 12 -10 18 -19
12 -19 -15 0 -95 92 -88 103 3 5 19 -5 36 -22 16 -18 27 -34 24 -37z m63 -4
c0 -5 -2 -10 -4 -10 -3 0 -8 5 -11 10 -3 6 -1 10 4 10 6 0 11 -4 11 -10z m87
-332 c-3 -8 -6 -5 -6 6 -1 11 2 17 5 13 3 -3 4 -12 1 -19z m8 -28 c3 -5 -1
-10 -9 -10 -8 0 -18 5 -21 10 -3 6 1 10 9 10 8 0 18 -4 21 -10z m-65 -42 c0
-4 -5 -8 -11 -8 -5 0 -7 -4 -4 -10 3 -5 1 -10 -4 -10 -6 0 -11 8 -11 18 0 10
7 19 15 19 8 0 15 -4 15 -9z m-2335 -8 c-3 -5 -12 -10 -18 -10 -7 0 -6 4 3 10
19 12 23 12 15 0z m2695 -104 c0 -3 -4 -8 -10 -11 -5 -3 -10 -1 -10 4 0 6 5
11 10 11 6 0 10 -2 10 -4z m-380 -70 c-1 -5 4 -13 12 -17 10 -7 10 -9 -2 -9
-8 0 -21 9 -28 21 -11 18 -11 20 3 17 9 -1 15 -7 15 -12z m-2350 -21 c-7 -8
-17 -15 -23 -15 -6 0 -2 7 9 15 25 19 30 19 14 0z m2415 -74 c3 -5 1 -12 -5
-16 -5 -3 -10 1 -10 9 0 18 6 21 15 7z m45 -41 c0 -5 -7 -7 -15 -4 -8 4 -15 8
-15 10 0 2 7 4 15 4 8 0 15 -4 15 -10z m-2540 -4 c0 -2 -8 -10 -17 -17 -16
-13 -17 -12 -4 4 13 16 21 21 21 13z m2575 -36 c3 -6 -4 -10 -17 -10 -18 0
-20 2 -8 10 19 12 18 12 25 0z m-2605 -35 c-13 -14 -26 -23 -28 -20 -3 3 -12
-1 -21 -8 -14 -11 -14 -10 -2 6 8 9 16 15 19 13 2 -3 14 6 24 20 11 14 23 23
26 19 3 -3 -5 -16 -18 -30z m2633 20 c-3 -9 -8 -14 -10 -11 -3 3 -2 9 2 15 9
16 15 13 8 -4z m161 -111 c3 -8 2 -12 -4 -9 -6 3 -10 10 -10 16 0 14 7 11 14
-7z m-2914 -67 l-34 -32 30 36 c16 20 31 34 33 32 3 -2 -10 -18 -29 -36z m126
5 c-17 -16 -18 -16 -5 5 7 12 15 20 18 17 3 -2 -3 -12 -13 -22z m2738 8 c13 0
17 -3 10 -10 -14 -14 -54 0 -54 18 0 12 3 13 12 4 7 -7 21 -12 32 -12z m-2674
-35 c-7 -9 -15 -13 -18 -10 -3 2 1 11 8 20 7 9 15 13 18 10 3 -2 -1 -11 -8
-20z m-120 1 c0 -2 -8 -10 -17 -17 -16 -13 -17 -12 -4 4 13 16 21 21 21 13z
m-40 -10 c0 -2 -8 -10 -17 -17 -16 -13 -17 -12 -4 4 13 16 21 21 21 13z m-67
-26 c-3 -11 -10 -23 -16 -27 -5 -3 -8 -2 -5 3 3 5 8 17 11 27 9 24 16 22 10
-3z m2847 -10 c0 -5 -7 -7 -15 -4 -8 4 -15 8 -15 10 0 2 7 4 15 4 8 0 15 -4
15 -10z m-2827 -15 c-3 -9 -8 -14 -10 -11 -3 3 -2 9 2 15 9 16 15 13 8 -4z
m31 -28 c-2 -7 -14 -19 -27 -26 -21 -13 -21 -12 2 13 27 29 33 32 25 13z m34
-7 c-7 -10 -14 -17 -17 -15 -4 4 18 35 25 35 2 0 -1 -9 -8 -20z m56 -16 c3 -8
2 -12 -4 -9 -6 3 -10 10 -10 16 0 14 7 11 14 -7z m-36 -5 c-10 -5 -18 -19 -18
-29 0 -19 -36 -47 -47 -37 -2 3 5 10 16 17 12 6 21 16 21 23 0 16 20 37 35 37
5 0 2 -5 -7 -11z m-48 -22 c0 -2 -14 -14 -31 -26 -29 -22 -31 -16 -6 17 8 10
37 18 37 9z m3405 -6 c3 -5 2 -12 -3 -15 -5 -3 -9 1 -9 9 0 17 3 19 12 6z
m-3534 -24 c-10 -9 -11 -8 -5 6 3 10 9 15 12 12 3 -3 0 -11 -7 -18z m2619 7
c0 -2 -7 -4 -15 -4 -8 0 -15 4 -15 10 0 5 7 7 15 4 8 -4 15 -8 15 -10z m-2590
-14 c0 -5 -5 -10 -11 -10 -5 0 -7 5 -4 10 3 6 8 10 11 10 2 0 4 -4 4 -10z
m3555 0 c3 -5 2 -10 -4 -10 -5 0 -13 5 -16 10 -3 6 -2 10 4 10 5 0 13 -4 16
-10z m-32 -25 c-3 -11 -1 -13 10 -9 18 7 46 -41 40 -68 -3 -10 -1 -18 4 -18 4
0 9 -11 9 -25 2 -30 -3 -30 -81 -6 -54 17 -56 18 -23 17 21 0 38 -4 38 -8 0
-19 18 -5 22 17 3 13 2 22 -3 20 -15 -10 -19 14 -4 29 9 9 11 17 5 21 -5 3
-10 1 -10 -5 0 -6 -4 -9 -9 -6 -5 4 -11 0 -14 -6 -2 -7 -3 3 -2 22 4 51 4 52
15 45 5 -3 7 -12 3 -20z m-3480 -38 c-18 -35 -33 -52 -42 -49 -10 4 -12 -1 -7
-19 6 -22 6 -22 -5 -5 -9 15 -9 21 2 30 8 6 26 30 42 54 38 58 43 53 10 -11z
m-43 2 c-12 -23 -24 -38 -27 -35 -5 5 35 76 43 76 2 0 -5 -18 -16 -41z m2470
37 c0 -3 -4 -8 -10 -11 -5 -3 -10 -1 -10 4 0 6 5 11 10 11 6 0 10 -2 10 -4z
m-2530 -36 c-6 -12 -14 -20 -17 -17 -2 3 1 14 8 26 17 26 24 19 9 -9z m1517
24 c-3 -3 -12 -4 -19 -1 -8 3 -5 6 6 6 11 1 17 -2 13 -5z m0 -20 c-3 -3 -12
-4 -19 -1 -8 3 -5 6 6 6 11 1 17 -2 13 -5z m-362 -23 c-6 -5 -23 -12 -40 -15
-28 -6 -28 -5 5 8 43 18 46 18 35 7z m-1184 -44 l-23 -22 17 28 c10 15 20 25
23 22 3 -3 -5 -16 -17 -28z m43 -11 c-3 -8 -17 -22 -30 -31 -24 -15 -24 -15
-12 4 6 11 15 18 19 15 4 -2 9 3 13 11 3 8 8 15 10 15 3 0 3 -6 0 -14z m12
-31 c-9 -13 -16 -31 -16 -40 0 -8 -4 -15 -10 -15 -5 0 -10 -4 -10 -10 0 -23
21 -8 34 25 8 19 17 35 20 35 7 0 -19 -60 -45 -104 -11 -20 -26 -36 -32 -36
-5 0 -2 9 8 20 19 21 7 28 -13 8 -9 -9 -12 -9 -12 3 0 16 77 139 86 139 4 0
-1 -11 -10 -25z m664 -32 c-52 -14 -102 -26 -110 -27 -8 0 -23 -10 -33 -21
-12 -15 -16 -16 -11 -4 4 13 -1 16 -23 13 l-28 -4 29 10 c16 5 32 13 35 18 10
14 132 40 186 40 48 0 46 -1 -45 -25z m-705 -2 c-3 -6 -11 -11 -17 -11 -6 0
-6 6 2 15 14 17 26 13 15 -4z m-32 -20 c3 -14 1 -18 -9 -14 -8 3 -12 9 -9 13
3 5 -1 11 -7 13 -8 4 -7 6 3 6 9 1 19 -8 22 -18z m867 4 c-7 -8 -21 -15 -32
-15 -23 0 -58 -30 -36 -30 23 -1 -24 -30 -48 -30 -13 0 -26 -4 -29 -10 -3 -5
-21 -10 -38 -11 -31 0 -31 -1 -8 -10 16 -6 28 -6 35 1 15 15 53 12 53 -5 0
-10 -15 -17 -49 -21 -83 -11 -74 -32 17 -39 31 -2 64 -7 75 -10 10 -3 22 0 26
6 4 8 3 9 -5 5 -6 -4 -18 -3 -25 3 -8 7 -18 11 -22 10 -5 -1 -31 0 -59 1 l-50
3 63 8 c38 5 74 4 88 -2 32 -12 64 -12 64 0 0 6 -15 12 -32 14 l-33 4 38 3
c20 1 42 4 47 5 6 1 20 3 32 4 14 1 18 5 13 10 -6 6 -47 11 -92 13 -46 1 -83
6 -83 10 0 4 48 5 108 3 59 -2 96 -2 82 1 -45 10 -45 24 1 17 24 -4 59 -7 77
-7 l33 1 -28 -23 c-16 -13 -50 -26 -77 -29 -39 -6 -46 -9 -32 -17 9 -5 24 -7
32 -4 8 3 14 3 14 1 0 -5 -57 -36 -65 -35 -8 1 -35 -27 -30 -32 2 -2 -15 -2
-38 0 -28 2 -38 0 -28 -6 17 -12 -3 -27 -21 -16 -7 4 -10 4 -6 0 3 -4 -2 -16
-13 -27 -11 -11 -17 -25 -13 -31 5 -7 10 -4 15 10 5 12 14 22 20 22 8 0 9 -4
0 -13 -6 -8 -8 -17 -4 -21 4 -3 0 -12 -9 -19 -27 -21 -29 -45 -5 -63 16 -12
17 -15 4 -10 -14 4 -16 2 -8 -13 7 -12 6 -22 -1 -29 -20 -20 59 -8 81 12 12
11 24 16 28 12 12 -12 -24 -38 -58 -41 -19 -2 -37 -3 -41 -4 -11 -2 2 -31 14
-31 5 0 6 5 3 10 -8 13 35 13 55 0 12 -8 9 -10 -12 -10 -16 0 -28 -4 -28 -10
0 -5 -12 -16 -27 -24 -33 -18 -27 -20 15 -5 18 6 30 15 27 19 -3 4 5 6 17 2
l21 -5 -21 -18 c-33 -26 -26 -33 8 -9 17 12 30 19 30 15 0 -3 10 -1 22 6 18
10 20 9 14 -7 -6 -17 -6 -17 12 -1 26 24 36 21 18 -5 -19 -26 -20 -38 -6 -38
6 0 15 10 20 23 9 20 10 19 7 -8 -1 -23 2 -30 15 -29 10 1 16 -3 15 -10 -1 -6
7 -9 17 -8 17 3 18 2 7 -12 -21 -25 -5 -30 18 -7 12 12 27 21 34 21 9 0 9 2
-1 8 -9 6 -4 14 18 30 16 13 30 29 30 36 0 20 19 24 84 21 32 -1 70 1 85 5 27
7 71 -6 71 -23 0 -5 -11 -2 -25 7 -21 14 -24 14 -19 1 4 -8 17 -18 30 -21 13
-3 24 -10 24 -15 0 -13 -24 -11 -38 3 -9 9 -12 6 -12 -15 0 -23 3 -26 18 -19
9 5 30 12 45 16 l28 7 -17 -26 c-9 -14 -23 -24 -30 -21 -7 3 -16 0 -20 -6 -4
-7 -10 -5 -16 6 -5 9 -13 16 -17 16 -10 0 -51 -35 -51 -43 0 -9 80 -6 85 4 3
4 12 6 20 3 8 -4 12 -10 9 -15 -3 -5 -9 -7 -14 -4 -5 3 -12 1 -15 -5 -4 -6
-15 -8 -26 -5 -12 4 -21 1 -25 -10 -10 -24 0 -27 41 -10 20 9 43 14 51 11 7
-3 16 -1 19 4 4 6 17 10 31 10 14 0 27 6 30 13 2 7 14 14 26 14 12 1 24 7 28
12 3 6 23 12 43 13 24 2 37 8 37 18 0 11 3 11 12 2 7 -7 17 -12 23 -12 5 1 -1
10 -14 20 -13 11 -18 20 -12 20 6 0 11 8 12 18 0 10 3 12 6 4 3 -7 18 -19 35
-28 16 -8 27 -18 24 -21 -3 -3 -17 2 -30 11 -33 21 -47 21 -17 -1 26 -17 71
-26 71 -13 0 4 -10 15 -22 24 -19 14 -19 16 -4 11 16 -4 17 -3 7 9 -7 8 -18
13 -25 10 -7 -3 -12 6 -14 20 -1 19 2 24 13 20 8 -4 12 -11 9 -18 -3 -6 1 -3
9 6 8 10 18 14 22 10 5 -4 1 5 -8 21 -20 31 -9 37 13 7 11 -15 17 -17 29 -7
12 9 13 9 7 0 -5 -9 0 -13 17 -13 14 0 28 7 32 18 5 13 4 14 -6 5 -20 -20 -40
3 -29 32 8 20 4 28 -25 54 -19 17 -35 34 -35 38 0 4 12 -4 28 -18 45 -41 61
-52 85 -54 12 -2 30 -6 40 -10 10 -4 17 -3 17 5 0 6 -4 9 -8 6 -5 -3 -15 4
-22 14 -9 12 -18 16 -25 10 -7 -6 -11 -3 -11 9 0 13 5 17 16 13 11 -4 10 0 -4
16 -13 15 -15 22 -6 22 7 0 10 3 6 7 -4 5 -13 0 -21 -10 -11 -16 -13 -16 -26
-1 -11 14 -11 18 4 29 13 10 15 14 5 17 -7 3 3 4 24 4 20 -1 34 -4 32 -7 -2
-4 3 -10 12 -13 8 -3 13 -10 9 -15 -3 -5 0 -13 6 -17 8 -4 7 -9 -2 -15 -12 -8
-12 -10 0 -18 7 -5 10 -15 7 -22 -4 -8 0 -5 8 5 22 27 20 10 -10 -78 -14 -42
-27 -85 -29 -97 -8 -39 -54 -107 -106 -153 -38 -34 -69 -51 -118 -66 -122 -36
-292 -54 -501 -54 -271 1 -417 29 -471 90 -46 53 -86 187 -95 321 -7 87 -6 93
12 94 17 1 17 2 2 6 -11 3 -18 14 -18 28 0 17 6 23 23 23 54 1 97 7 97 13 0 4
-18 5 -41 3 -27 -4 -39 -2 -34 5 3 6 15 11 26 11 10 0 19 5 19 10 0 13 -4 13
-47 -5 -19 -8 -36 -15 -38 -15 -1 0 1 22 6 49 9 60 31 103 61 123 33 22 133
49 152 42 9 -3 16 -1 16 4 0 6 12 13 28 15 55 8 55 8 42 -8z m108 -22 c-10 -2
-28 -2 -40 0 -13 2 -5 4 17 4 22 1 32 -1 23 -4z m881 -17 c12 -8 13 -8 7 2 -6
9 -2 10 17 1 38 -17 67 -78 67 -140 -1 -70 -14 -138 -30 -152 -10 -9 -12 -8
-7 5 3 9 1 18 -4 20 -6 2 -11 18 -11 35 -1 21 -5 30 -12 26 -8 -5 -8 -3 0 8 9
11 5 27 -17 69 -16 30 -29 51 -29 47 0 -4 -13 5 -30 20 -30 26 -44 65 -17 47
7 -5 3 0 -10 11 l-23 20 43 -3 c23 -3 48 -9 56 -16z m-1428 -5 c-21 -16 -23
-25 -22 -86 1 -54 7 -79 31 -124 27 -52 46 -109 56 -171 9 -51 57 -197 80
-241 12 -26 37 -58 53 -72 38 -32 132 -63 246 -82 89 -14 89 -15 20 -9 -176
13 -274 58 -325 148 -33 57 -81 194 -105 300 -17 71 -36 118 -62 147 -10 12
-13 39 -11 100 3 78 5 84 28 96 35 18 39 16 11 -6z m429 15 c0 -2 -7 -7 -16
-10 -8 -3 -12 -2 -9 4 6 10 25 14 25 6z m2799 -124 c-1 -53 -4 -86 -6 -72 -2
14 -7 32 -10 40 -3 8 -6 31 -5 50 0 24 -7 41 -21 53 l-22 18 23 -11 c17 -8 22
-8 22 3 0 7 -6 19 -12 26 -11 11 -9 11 10 2 21 -11 22 -18 21 -109z m-3668 96
c1 -7 3 -23 4 -36 1 -12 0 -21 -2 -18 -3 3 -17 0 -31 -5 -22 -8 -23 -8 -12 6
7 8 16 13 20 10 5 -3 11 -1 15 5 3 5 2 10 -4 10 -6 0 -7 8 -4 18 6 15 5 16
-13 2 -18 -14 -18 -14 -5 3 16 20 30 22 32 5z m-51 -1 c0 -2 -10 -12 -21 -23
-22 -19 -22 -19 -10 4 10 18 31 31 31 19z m2026 -115 l2 -87 -7 85 c-3 47 -10
92 -15 100 -7 12 -7 13 5 2 10 -9 14 -40 15 -100z m1761 -2 c18 -76 16 -255
-3 -348 -17 -83 -53 -175 -61 -154 -3 7 1 19 7 28 7 8 10 17 6 21 -3 3 -6 1
-6 -5 0 -7 -7 -12 -17 -12 -15 0 -15 2 1 19 13 14 14 21 5 27 -8 5 -10 3 -4
-7 5 -8 5 -11 0 -7 -4 4 -9 21 -10 38 -2 27 0 30 19 25 14 -4 17 -3 8 3 -9 6
-10 15 -3 33 8 22 10 21 17 -20 13 -81 28 -15 31 146 3 137 -4 234 -22 288 -7
20 -7 20 6 0 7 -11 19 -45 26 -75z m-2879 63 c-10 -2 -28 -2 -40 0 -13 2 -5 4
17 4 22 1 32 -1 23 -4z m-892 -51 c-14 -14 -16 -14 -16 -1 0 20 23 44 29 28 2
-6 -4 -18 -13 -27z m44 22 c0 -3 -13 -23 -29 -43 -15 -20 -26 -42 -23 -50 3
-8 0 -11 -6 -7 -6 4 -19 -5 -28 -19 -21 -32 -36 -33 -21 -1 7 13 14 23 18 21
3 -2 16 14 30 35 13 22 27 40 32 40 4 0 7 7 7 15 0 8 5 15 10 15 6 0 10 -3 10
-6z m-78 -26 c-7 -7 -12 -8 -12 -2 0 14 12 26 19 19 2 -3 -1 -11 -7 -17z m10
-30 c-7 -7 -12 -8 -12 -2 0 14 12 26 19 19 2 -3 -1 -11 -7 -17z m410 -18 c1
-14 8 -29 13 -33 6 -5 4 -7 -5 -4 -9 2 -16 18 -18 38 -4 38 4 38 10 -1z m943
10 c3 -5 -1 -10 -9 -10 -9 0 -16 5 -16 10 0 6 4 10 9 10 6 0 13 -4 16 -10z
m-55 -15 c0 -8 -4 -15 -9 -15 -13 0 -22 16 -14 24 11 11 23 6 23 -9z m-85 -53
c-6 -7 -35 18 -35 31 0 5 9 2 20 -8 11 -10 18 -20 15 -23z m45 29 c0 -17 -15
-19 -28 -5 -11 12 -9 14 8 14 11 0 20 -4 20 -9z m1658 -48 c-2 -16 -9 -28 -17
-28 -8 0 -16 12 -18 28 -3 22 0 27 17 27 17 0 21 -5 18 -27z m-891 -5 c-3 -8
-6 -5 -6 6 -1 11 2 17 5 13 3 -3 4 -12 1 -19z m-1529 -13 c3 -10 0 -15 -7 -11
-6 4 -11 2 -11 -4 0 -6 -4 -9 -9 -5 -5 3 -27 -10 -47 -29 -57 -52 -55 -33 1
24 51 51 67 57 73 25z m895 -26 c3 -10 -2 -24 -11 -31 -18 -16 -16 -16 -34 0
-13 10 -14 17 -5 36 13 27 43 24 50 -5z m254 -23 c4 -40 -8 -52 -37 -36 -19
10 -19 13 -6 32 12 17 13 25 4 37 -10 13 -10 14 2 4 21 -19 34 -16 19 5 -11
14 -11 15 1 5 7 -7 15 -28 17 -47z m-1692 34 c-3 -5 -12 -10 -18 -10 -7 0 -6
4 3 10 19 12 23 12 15 0z m1299 -35 c-3 -15 5 -39 20 -63 l24 -38 -46 -11
c-36 -8 -42 -8 -28 2 15 11 12 13 -19 19 -31 6 -51 26 -25 26 6 0 10 5 10 11
0 5 -4 7 -10 4 -24 -15 -7 12 28 42 45 39 52 41 46 8z m481 -17 c-6 -19 -5
-21 6 -10 15 14 75 16 83 3 7 -11 -75 -24 -97 -15 -13 5 -14 10 -6 25 13 26
22 24 14 -3z m-1370 -37 c-3 -6 -11 -11 -17 -11 -6 0 -6 6 2 15 14 17 26 13
15 -4z m-378 -11 c-4 -27 -17 -38 -17 -13 0 18 8 33 17 33 1 0 2 -9 0 -20z
m343 -20 c0 -5 -5 -10 -11 -10 -5 0 -7 5 -4 10 3 6 8 10 11 10 2 0 4 -4 4 -10z
m1144 -42 c-3 -4 -11 -5 -19 -1 -21 7 -19 12 4 10 11 0 18 -5 15 -9z m-279
-27 c-3 -6 -11 -8 -17 -5 -6 4 -5 9 3 15 16 10 23 4 14 -10z m485 -37 c0 -2
-9 -4 -20 -4 -11 0 -20 4 -20 9 0 5 9 7 20 4 11 -3 20 -7 20 -9z m-166 -19
c-4 -8 -11 -15 -16 -15 -6 0 -5 6 2 15 7 8 14 15 16 15 2 0 1 -7 -2 -15z m-14
-45 c0 -5 -5 -10 -11 -10 -5 0 -7 5 -4 10 3 6 8 10 11 10 2 0 4 -4 4 -10z
m2328 -77 c-1 -5 5 -51 15 -103 33 -189 39 -250 23 -247 -6 1 -10 -3 -11 -10
-1 -30 -45 -42 -45 -12 0 6 5 7 12 3 7 -4 8 -3 4 5 -9 15 -29 3 -22 -14 2 -7
-1 -18 -7 -24 -9 -9 -5 -11 13 -8 29 5 61 -26 54 -51 -4 -14 -3 -13 6 1 9 15
8 22 -6 38 -16 17 -16 19 -1 19 10 0 17 4 17 10 0 5 -8 6 -17 3 -16 -6 -16 -5
-4 11 19 22 31 5 31 -46 0 -20 5 -60 11 -87 10 -46 9 -52 -11 -73 l-22 -23 11
23 c11 20 8 26 -10 24 -4 -1 -9 8 -12 18 -3 11 -1 20 4 20 5 0 9 -5 9 -12 0
-6 2 -9 5 -6 8 8 -35 78 -47 78 -7 0 -7 -4 0 -12 8 -10 4 -13 -13 -14 -13 -1
-26 5 -29 13 -3 8 -1 11 4 8 20 -12 9 35 -12 56 -13 12 -17 18 -9 14 11 -7 13
-1 8 27 -3 20 -1 40 5 46 8 8 8 15 0 25 -9 11 -8 14 3 14 8 0 11 -5 8 -10 -3
-6 -1 -7 5 -3 6 4 8 14 5 23 -5 12 -2 15 9 11 13 -5 14 -3 4 18 -6 13 -17 22
-23 19 -7 -2 -13 3 -13 11 0 8 -4 12 -10 9 -5 -3 -10 -2 -10 3 0 17 13 22 27
10 7 -6 16 -8 20 -4 8 8 2 13 -22 18 -11 1 -23 8 -27 13 -13 17 -9 53 7 69 27
27 16 27 -27 0 l-43 -26 52 46 c28 26 55 55 58 66 6 18 28 30 23 13z m-1294
-299 c3 -8 2 -12 -4 -9 -6 3 -10 10 -10 16 0 14 7 11 14 -7z m25 -73 c0 -15
-3 -20 -6 -11 -3 8 -10 23 -15 32 -6 14 -5 16 7 12 8 -4 15 -18 14 -33z m1541
-21 c-6 -11 -13 -20 -16 -20 -2 0 0 9 6 20 6 11 13 20 16 20 2 0 0 -9 -6 -20z
m-1476 -9 c3 -5 -1 -14 -8 -20 -12 -10 -13 -8 -9 8 6 23 9 25 17 12z m681 -20
c-3 -12 0 -21 10 -25 11 -4 14 -2 9 6 -4 6 4 3 19 -8 14 -10 28 -27 31 -38 4
-16 2 -16 -19 4 l-24 22 2 -21 c1 -11 7 -21 13 -21 7 0 15 -9 19 -19 3 -11 12
-18 19 -15 7 3 13 -1 14 -8 0 -7 4 -23 7 -35 4 -13 3 -23 -2 -23 -6 0 -9 -11
-8 -24 3 -19 -1 -23 -13 -18 -10 3 -23 12 -30 19 -19 19 -40 16 -52 -6 -14
-28 -13 -33 9 -26 14 4 21 0 26 -15 8 -26 25 -26 18 0 -3 12 0 20 7 20 7 0 10
-6 7 -13 -3 -8 -1 -20 4 -28 6 -10 9 -8 9 11 1 24 1 25 16 5 19 -25 26 -24 42
12 10 21 12 22 8 6 -2 -13 1 -26 6 -29 6 -4 3 -11 -8 -17 -13 -7 -19 -7 -22 1
-2 8 -9 9 -22 2 -13 -7 -18 -21 -18 -42 1 -42 9 -57 19 -32 6 17 8 16 14 -9 5
-18 2 -35 -9 -52 -21 -32 -40 -33 -32 0 5 18 1 27 -13 35 -25 13 -31 13 -31 0
0 -5 7 -10 15 -10 9 0 15 -9 15 -23 0 -13 5 -28 12 -35 13 -13 32 -16 24 -4
-2 4 4 13 15 20 24 15 25 -2 2 -25 -19 -19 -82 -20 -84 -2 -1 5 -2 12 -4 17
-16 61 -17 62 -31 51 -8 -7 -14 -7 -14 -1 0 5 -9 12 -21 15 -20 5 -20 5 -4
-13 9 -10 15 -25 13 -32 -3 -7 2 -19 10 -27 12 -12 15 -12 23 0 5 8 9 10 9 4
0 -5 -5 -17 -10 -25 -8 -13 -12 -12 -25 7 -8 12 -25 23 -37 25 -11 2 -24 10
-29 18 -9 17 -22 52 -23 62 -3 18 -16 18 -16 0 0 -12 5 -22 10 -22 6 0 10 -5
10 -11 0 -8 -4 -8 -15 1 -8 6 -19 9 -24 5 -7 -4 -8 1 -4 11 5 13 3 15 -7 9
-10 -6 -12 -4 -7 9 4 10 7 21 7 26 0 9 60 -2 80 -15 9 -5 10 -1 5 16 -11 37
-23 45 -46 31 -12 -8 -24 -11 -27 -8 -3 3 -1 6 5 6 6 0 13 10 16 22 6 21 -21
51 -48 54 -5 1 -14 2 -18 3 -5 0 -5 5 -2 11 4 6 17 4 35 -5 37 -19 39 -19 37
5 -1 21 -13 27 -19 11 -1 -5 -16 1 -31 15 -29 24 -21 32 13 14 10 -6 21 -6 24
-1 3 4 -6 13 -19 19 -24 11 -24 12 -8 41 10 16 22 27 28 25 5 -2 17 1 25 6 13
8 13 13 2 31 -15 24 -7 37 26 44 14 2 22 -1 22 -10 0 -8 6 -12 14 -9 22 8 30
-16 10 -30 -9 -7 -14 -18 -10 -24 4 -7 3 -12 -2 -12 -6 0 -12 7 -16 15 -3 8
-11 15 -17 15 -7 0 -2 -11 11 -25 22 -24 25 -24 34 -8 6 10 11 21 11 26 0 4 5
7 10 6 6 0 9 -11 8 -25 -2 -30 15 -32 26 -2 6 16 4 26 -7 34 -17 13 -26 74
-10 74 5 0 7 -8 3 -19z m466 -8 c13 -16 12 -17 -3 -4 -10 7 -18 15 -18 17 0 8
8 3 21 -13z m-398 -10 c-4 -10 -9 -11 -19 -2 -18 15 -18 15 5 15 11 0 17 -5
14 -13z m-660 -32 c2 -9 3 -19 3 -22 -1 -3 5 -13 12 -22 14 -17 8 -57 -9 -57
-6 0 -7 -5 -3 -12 4 -7 3 -8 -5 -4 -9 6 -9 11 1 24 11 14 10 15 -7 8 -11 -4
-16 -4 -13 0 4 4 3 15 -2 25 -7 12 -7 20 0 24 6 4 4 12 -5 22 -9 8 -19 12 -23
9 -3 -4 -1 -10 5 -14 7 -5 9 -13 4 -21 -6 -9 -10 -5 -15 15 -4 16 -11 31 -16
34 -5 3 9 6 30 6 28 1 40 -3 43 -15z m-76 -23 c-3 -8 -6 -5 -6 6 -1 11 2 17 5
13 3 -3 4 -12 1 -19z m543 1 c0 -4 -7 -6 -15 -3 -8 4 -15 10 -15 15 0 4 7 6
15 3 8 -4 15 -10 15 -15z m286 -26 c-4 -4 -12 -1 -19 7 -9 10 -9 11 1 6 7 -4
12 -2 13 6 0 11 2 11 6 0 3 -7 2 -16 -1 -19z m364 -8 c1 -11 2 -29 1 -40 -1
-18 -2 -18 -17 -3 -10 10 -13 21 -8 30 5 7 7 22 5 33 -2 13 1 17 7 10 6 -5 11
-19 12 -30z m-690 15 c0 -5 -4 -10 -10 -10 -5 0 -10 5 -10 10 0 6 5 10 10 10
6 0 10 -4 10 -10z m320 -40 c-8 -5 -9 -13 -4 -21 7 -12 5 -12 -9 -1 -13 11
-14 17 -4 27 7 7 16 11 21 8 4 -3 3 -9 -4 -13z m47 -37 c-3 -10 -5 -4 -5 12 0
17 2 24 5 18 2 -7 2 -21 0 -30z m-1027 24 c0 -2 -10 -12 -22 -23 l-23 -19 19
23 c18 21 26 27 26 19z m610 -3 c0 -8 -19 -13 -24 -6 -3 5 1 9 9 9 8 0 15 -2
15 -3z m769 -21 c0 -10 2 -34 5 -53 l5 -35 -19 24 c-11 13 -20 30 -20 38 0 8
-5 11 -10 8 -6 -4 -8 -12 -4 -18 3 -7 -2 -3 -11 8 -15 19 -15 20 9 23 15 2 26
8 26 13 0 5 4 9 9 9 6 0 10 -8 10 -17z m-420 -35 c-5 -10 -12 -18 -14 -18 -2
0 -3 8 -2 18 0 10 7 19 13 19 9 0 10 -5 3 -19z m-94 -9 c11 -17 0 -20 -21 -4
-17 13 -17 14 -2 15 9 0 20 -5 23 -11z m175 -24 c0 -5 -5 -3 -10 5 -5 8 -10
20 -10 25 0 6 5 3 10 -5 5 -8 10 -19 10 -25z m400 25 c0 -5 -4 -10 -10 -10 -5
0 -10 5 -10 10 0 6 5 10 10 10 6 0 10 -4 10 -10z m-856 -11 c-3 -6 0 -15 7
-20 8 -5 10 -9 4 -9 -5 0 -17 5 -25 10 -13 9 -13 11 0 20 20 13 23 12 14 -1z
m759 -14 c-3 -9 -8 -14 -10 -11 -3 3 -2 9 2 15 9 16 15 13 8 -4z m-687 -27 c4
-7 3 -8 -4 -4 -7 4 -12 1 -12 -8 0 -20 -14 -21 -29 -2 -10 12 -8 15 11 19 13
2 24 5 25 6 1 0 5 -4 9 -11z m741 -37 c1 -17 -3 -31 -8 -31 -6 0 -8 4 -4 9 3
6 -3 14 -12 20 -12 7 -13 10 -4 11 11 0 11 3 1 15 -10 12 -16 13 -29 3 -14
-11 -14 -11 -3 4 21 27 57 8 59 -31z m-307 24 c0 -8 -4 -15 -10 -15 -5 0 -7 7
-4 15 4 8 8 15 10 15 2 0 4 -7 4 -15z m254 -24 c3 -5 -1 -12 -10 -15 -20 -8
-29 -1 -19 13 8 13 22 14 29 2z m-624 -11 c0 -5 -4 -10 -10 -10 -5 0 -10 5
-10 10 0 6 5 10 10 10 6 0 10 -4 10 -10z m-95 -18 c-3 -3 -11 0 -18 7 -9 10
-8 11 6 5 10 -3 15 -9 12 -12z m695 -18 c0 -8 -5 -12 -10 -9 -6 4 -8 11 -5 16
9 14 15 11 15 -7z m37 1 c0 -17 -13 -20 -21 -6 -4 5 0 12 6 14 7 3 13 6 14 6
0 1 1 -6 1 -14z m-750 -1 c-3 -3 -12 -4 -19 -1 -8 3 -5 6 6 6 11 1 17 -2 13
-5z m813 -4 c0 -5 -2 -10 -4 -10 -3 0 -8 5 -11 10 -3 6 -1 10 4 10 6 0 11 -4
11 -10z m-88 -29 c8 12 9 12 6 0 -2 -8 -11 -15 -20 -17 -12 -1 -15 3 -10 14 4
12 7 13 10 3 4 -11 6 -11 14 0z m-327 -11 c4 -6 1 -9 -7 -8 -7 2 -12 -2 -11
-9 1 -6 -4 -13 -11 -16 -19 -7 -15 26 4 35 8 4 16 7 17 7 1 1 5 -4 8 -9z
m-400 -10 c-3 -5 -12 -10 -18 -10 -7 0 -6 4 3 10 19 12 23 12 15 0z m22 -32
c-3 -8 -6 -5 -6 6 -1 11 2 17 5 13 3 -3 4 -12 1 -19z m423 -32 c0 -3 -4 -8
-10 -11 -5 -3 -10 -1 -10 4 0 6 5 11 10 11 6 0 10 -2 10 -4z m-21 -40 c-3 -3
-11 5 -18 17 -13 21 -12 21 5 5 10 -10 16 -20 13 -22z m-154 14 c3 -5 2 -10
-4 -10 -5 0 -13 5 -16 10 -3 6 -2 10 4 10 5 0 13 -4 16 -10z m36 -7 c13 -16
12 -17 -3 -4 -10 7 -18 15 -18 17 0 8 8 3 21 -13z m-1311 3 c0 -2 -8 -10 -17
-17 -16 -13 -17 -12 -4 4 13 16 21 21 21 13z m1245 -6 c3 -5 2 -10 -4 -10 -5
0 -13 5 -16 10 -3 6 -2 10 4 10 5 0 13 -4 16 -10z m139 -12 c8 -32 8 -35 -9
-41 -8 -4 -17 -1 -21 5 -4 6 -3 8 4 4 16 -10 24 11 12 34 -6 11 -7 20 -2 20 6
0 12 -10 16 -22z m-1449 3 c3 -5 1 -12 -4 -15 -5 -3 -11 1 -15 9 -6 16 9 21
19 6z m385 -1 c0 -5 -2 -10 -4 -10 -3 0 -8 5 -11 10 -3 6 -1 10 4 10 6 0 11
-4 11 -10z m945 -30 c3 -5 1 -10 -4 -10 -6 0 -11 5 -11 10 0 6 2 10 4 10 3 0
8 -4 11 -10z m-1315 -53 c0 -2 -10 -12 -22 -23 l-23 -19 19 23 c18 21 26 27
26 19z m-161 -40 c-2 -1 -13 -9 -24 -17 -19 -14 -19 -14 -6 3 7 9 18 17 24 17
6 0 8 -1 6 -3z m-189 -31 c0 -2 -8 -10 -17 -17 -16 -13 -17 -12 -4 4 13 16 21
21 21 13z m56 -21 c-9 -9 -16 -13 -16 -8 0 12 22 34 28 28 2 -2 -3 -11 -12
-20z m48 -12 c-7 -2 -10 -12 -7 -22 3 -12 -5 -26 -21 -39 -14 -11 -26 -28 -26
-38 1 -18 1 -18 14 -2 10 14 15 15 26 5 10 -10 12 -8 8 9 -3 13 0 21 8 22 8 1
21 3 29 4 8 1 19 16 26 35 10 31 29 46 29 23 0 -5 -4 -10 -9 -10 -13 0 -21
-39 -9 -46 5 -3 17 1 26 9 20 17 80 28 88 15 3 -5 12 -4 20 3 10 8 14 8 14 0
0 -6 9 -11 21 -11 11 0 17 4 14 10 -3 6 1 7 9 4 9 -3 16 -1 16 6 0 6 5 8 11 5
6 -4 17 1 24 11 14 18 14 18 15 1 0 -12 6 -17 18 -16 9 2 28 -3 41 -10 23 -13
158 -17 231 -8 14 2 30 1 35 -2 6 -3 14 -6 19 -6 5 0 11 -6 14 -14 3 -10 -2
-13 -22 -9 -17 4 -29 0 -35 -10 -5 -9 -15 -12 -24 -9 -9 3 -24 -1 -33 -11 -10
-9 -21 -17 -25 -17 -4 0 -11 -3 -15 -7 -4 -4 -18 -5 -30 -2 -23 6 -29 -1 -25
-31 0 -6 -9 -16 -22 -24 -20 -12 -21 -12 -6 4 9 9 14 26 11 41 -5 26 -22 33
-22 8 0 -8 -5 -12 -11 -8 -6 3 -15 0 -20 -7 -6 -10 -9 -11 -9 -1 0 22 -20 13
-21 -10 -1 -18 -2 -19 -6 -5 -6 22 -23 12 -23 -14 0 -10 -2 -19 -4 -19 -2 0
-13 -3 -23 -6 -17 -6 -17 -6 1 8 11 9 16 20 12 27 -6 9 -11 7 -21 -6 -11 -15
-15 -16 -31 -3 -11 9 -15 10 -10 3 5 -9 0 -13 -15 -13 -12 0 -27 -7 -33 -16
-8 -10 -29 -15 -64 -16 -29 -1 -48 -5 -41 -8 8 -6 8 -9 0 -15 -7 -4 -19 -1
-27 6 -8 6 -17 9 -21 5 -3 -3 -1 -6 5 -6 7 0 12 -3 12 -7 0 -14 -56 -8 -75 7
-10 8 -20 14 -22 12 -3 -2 -8 0 -11 4 -4 4 -1 4 6 0 6 -4 12 -3 12 2 0 6 -11
9 -24 8 -13 0 -22 -5 -18 -10 3 -5 -2 -7 -10 -3 -11 4 -18 -1 -21 -15 -3 -11
-10 -17 -16 -13 -6 3 -11 1 -11 -4 0 -6 -7 -11 -15 -11 -8 0 -15 -5 -15 -11 0
-5 -5 -7 -10 -4 -6 4 -17 1 -25 -5 -12 -10 -18 -10 -30 0 -17 14 -21 60 -5 60
6 0 10 9 10 19 0 13 8 21 22 23 13 2 24 11 27 23 3 18 2 18 -15 5 -17 -14 -18
-14 -5 2 7 10 17 16 21 13 5 -3 19 8 33 24 17 20 28 26 35 19 7 -7 12 0 17 21
3 17 11 34 17 38 8 4 9 0 5 -11 -4 -10 -3 -15 3 -11 6 3 10 16 10 29 0 23 20
50 29 39 3 -3 1 -8 -5 -10z m-225 -42 c-13 -11 -26 -18 -28 -15 -7 7 21 34 36
34 10 0 8 -6 -8 -19z m105 -6 c-4 -8 -11 -12 -16 -9 -6 4 -5 10 3 15 19 12 19
11 13 -6z m-234 -39 c0 -2 -8 -10 -17 -17 -16 -13 -17 -12 -4 4 13 16 21 21
21 13z m-1120 -42 c0 -8 -5 -12 -10 -9 -6 4 -8 11 -5 16 9 14 15 11 15 -7z
m995 -29 c-15 -19 -30 -33 -33 -31 -3 3 8 22 23 41 15 20 29 34 32 31 3 -2 -7
-21 -22 -41z m-885 19 c0 -8 -5 -12 -10 -9 -6 4 -8 11 -5 16 9 14 15 11 15 -7z
m1870 -9 c0 -8 -2 -15 -4 -15 -2 0 -6 7 -10 15 -3 8 -1 15 4 15 6 0 10 -7 10
-15z m190 5 c0 -5 -5 -10 -11 -10 -5 0 -7 5 -4 10 3 6 8 10 11 10 2 0 4 -4 4
-10z m-2130 -20 c0 -5 -5 -10 -11 -10 -5 0 -7 5 -4 10 3 6 8 10 11 10 2 0 4
-4 4 -10z m1860 -10 c0 -5 -5 -10 -11 -10 -5 0 -7 5 -4 10 3 6 8 10 11 10 2 0
4 -4 4 -10z m-1870 -31 c0 -11 -5 -17 -10 -14 -6 4 -13 -7 -16 -24 -4 -17 -10
-31 -15 -31 -9 0 9 58 24 78 13 17 17 15 17 -9z m1720 -1 c0 -4 -7 -8 -15 -8
-8 0 -15 4 -15 8 0 5 7 9 15 9 8 0 15 -4 15 -9z m-1594 -62 c-8 -31 -33 -40
-39 -15 -4 16 -3 18 8 9 15 -12 31 3 20 20 -3 6 -3 15 1 22 11 17 18 -7 10
-36z m2734 -8 c0 -4 -4 -8 -10 -8 -5 0 -10 -5 -10 -11 0 -8 4 -8 14 0 21 18
47 10 74 -21 16 -19 21 -34 17 -48 -5 -15 -3 -18 9 -14 12 4 16 0 16 -16 0
-13 -4 -19 -12 -14 -8 5 -9 0 -6 -14 4 -12 2 -25 -4 -28 -5 -3 -7 -12 -4 -19
3 -9 -2 -13 -15 -12 -10 1 -19 4 -19 7 0 4 -13 21 -30 40 -16 18 -27 37 -24
41 3 5 -1 6 -9 3 -10 -3 -14 2 -13 18 1 13 -4 29 -11 36 -7 7 -10 19 -7 27 4
8 1 15 -5 15 -6 0 -11 5 -11 11 0 5 5 7 12 3 7 -5 9 -2 5 9 -4 12 -2 14 10 10
13 -5 15 -2 10 13 -7 19 -7 19 8 0 8 -11 15 -23 15 -28z m-2609 1 c-9 -22 -10
-22 -10 -3 -1 11 2 24 6 27 12 12 14 0 4 -24z m-104 -11 c-3 -8 -6 -5 -6 6 -1
11 2 17 5 13 3 -3 4 -12 1 -19z m3428 13 c3 -5 1 -12 -5 -16 -5 -3 -10 1 -10
9 0 18 6 21 15 7z m-3502 -21 c3 -11 1 -18 -4 -14 -5 3 -9 12 -9 20 0 20 7 17
13 -6z m217 11 c0 -5 -6 -14 -14 -20 -12 -10 -13 -8 -9 8 5 21 23 30 23 12z
m133 -32 c-9 -9 -12 -7 -10 9 1 14 5 18 11 12 7 -7 6 -14 -1 -21z m-189 5 c3
-8 2 -12 -4 -9 -6 3 -10 10 -10 16 0 14 7 11 14 -7z m-257 -26 c-3 -8 -6 -5
-6 6 -1 11 2 17 5 13 3 -3 4 -12 1 -19z m94 -2 c13 8 10 -8 -5 -29 -12 -15
-14 -16 -20 -2 -3 8 -2 23 1 32 4 11 8 13 11 5 2 -7 8 -10 13 -6z m86 -8 c-3
-8 -6 -5 -6 6 -1 11 2 17 5 13 3 -3 4 -12 1 -19z m-47 -9 c0 -11 -4 -18 -10
-14 -5 3 -7 12 -3 20 7 21 13 19 13 -6z m290 12 c0 -5 -9 -19 -20 -32 l-21
-24 16 33 c15 31 25 41 25 23z m-273 -63 c-3 -7 -5 -2 -5 12 0 14 2 19 5 13 2
-7 2 -19 0 -25z m156 -13 c-3 -9 -8 -14 -10 -11 -3 3 -2 9 2 15 9 16 15 13 8
-4z m2097 -10 c0 -2 -7 -8 -15 -15 -12 -10 -15 -10 -15 2 0 8 7 15 15 15 8 0
15 -1 15 -2z m-2271 -60 c0 -14 -2 -16 -6 -5 -3 8 -13 24 -22 34 -15 18 -15
18 7 5 12 -8 22 -23 21 -34z m81 35 c0 -5 -5 -10 -11 -10 -5 0 -7 5 -4 10 3 6
8 10 11 10 2 0 4 -4 4 -10z m-133 -32 c-3 -8 -6 -5 -6 6 -1 11 2 17 5 13 3 -3
4 -12 1 -19z m2093 -13 c0 -5 -5 -3 -10 5 -5 8 -10 20 -10 25 0 6 5 3 10 -5 5
-8 10 -19 10 -25z m-1553 3 c-3 -8 -6 -5 -6 6 -1 11 2 17 5 13 3 -3 4 -12 1
-19z m-440 -30 c-3 -8 -6 -5 -6 6 -1 11 2 17 5 13 3 -3 4 -12 1 -19z m-117
-18 c0 -5 -2 -10 -4 -10 -3 0 -8 5 -11 10 -3 6 -1 10 4 10 6 0 11 -4 11 -10z
m515 -1 c11 -16 1 -19 -13 -3 -7 8 -8 14 -3 14 5 0 13 -5 16 -11z m42 -11 c-3
-8 -6 -5 -6 6 -1 11 2 17 5 13 3 -3 4 -12 1 -19z m-479 -33 c-3 -3 -9 2 -12
12 -6 14 -5 15 5 6 7 -7 10 -15 7 -18z m522 -16 c0 -6 -4 -7 -10 -4 -5 3 -10
11 -10 16 0 6 5 7 10 4 6 -3 10 -11 10 -16z m-515 -17 c-3 -3 -11 0 -18 7 -9
10 -8 11 6 5 10 -3 15 -9 12 -12z m1696 -5 c-10 -9 -11 -8 -5 6 3 10 9 15 12
12 3 -3 0 -11 -7 -18z m-1761 3 c0 -5 -2 -10 -4 -10 -3 0 -8 5 -11 10 -3 6 -1
10 4 10 6 0 11 -4 11 -10z m207 -12 c-3 -8 -6 -5 -6 6 -1 11 2 17 5 13 3 -3 4
-12 1 -19z m-173 -4 c3 -8 2 -12 -4 -9 -6 3 -10 10 -10 16 0 14 7 11 14 -7z
m569 -4 c-6 -24 -23 -37 -23 -18 0 12 18 38 26 38 1 0 0 -9 -3 -20z m-603 -46
c0 -9 6 -22 14 -30 9 -8 12 -23 8 -36 -6 -22 -6 -22 -10 -3 -3 11 -13 32 -24
47 -11 16 -16 32 -13 38 8 14 25 3 25 -16z m1781 -37 c-8 -8 -11 -5 -11 9 0
27 14 41 18 19 2 -9 -1 -22 -7 -28z m246 1 c-3 -7 -5 -2 -5 12 0 14 2 19 5 13
2 -7 2 -19 0 -25z m1403 22 c0 -5 -2 -10 -4 -10 -3 0 -8 5 -11 10 -3 6 -1 10
4 10 6 0 11 -4 11 -10z m-2763 -62 c-3 -8 -6 -5 -6 6 -1 11 2 17 5 13 3 -3 4
-12 1 -19z m1383 -11 c0 -5 -4 -5 -10 -2 -5 3 -10 14 -10 23 0 15 2 15 10 2 5
-8 10 -19 10 -23z m315 -28 c9 -17 14 -33 12 -36 -4 -3 -37 53 -37 64 0 11 12
-1 25 -28z m1015 11 c-6 -11 -13 -20 -16 -20 -2 0 0 9 6 20 6 11 13 20 16 20
2 0 0 -9 -6 -20z m-1490 -6 c0 -8 -5 -12 -10 -9 -6 4 -8 11 -5 16 9 14 15 11
15 -7z m134 -30 c3 -38 12 -95 22 -141 2 -13 0 -23 -4 -23 -15 0 -40 123 -30
143 6 12 5 23 -2 32 -7 8 -9 19 -5 25 10 17 15 8 19 -36z m424 10 c-4 -3 -12
5 -18 18 -12 22 -12 22 6 6 10 -10 15 -20 12 -24z m-663 -10 c-8 -16 -15 -23
-15 -16 0 17 20 55 26 49 2 -2 -2 -17 -11 -33z m36 13 c-10 -9 -11 -8 -5 6 3
10 9 15 12 12 3 -3 0 -11 -7 -18z m-1804 -27 c-4 -16 -2 -32 3 -35 6 -3 10
-10 10 -16 0 -5 -9 0 -19 10 -17 17 -18 24 -8 45 16 34 21 33 14 -4z m1809
-27 c-11 -11 -19 6 -11 24 8 17 8 17 12 0 3 -10 2 -21 -1 -24z m-1789 5 c-3
-8 -6 -5 -6 6 -1 11 2 17 5 13 3 -3 4 -12 1 -19z m683 12 c0 -5 -4 -10 -10
-10 -5 0 -10 5 -10 10 0 6 5 10 10 10 6 0 10 -4 10 -10z m1257 -12 c-3 -8 -6
-5 -6 6 -1 11 2 17 5 13 3 -3 4 -12 1 -19z m490 0 c-3 -8 -6 -5 -6 6 -1 11 2
17 5 13 3 -3 4 -12 1 -19z m-2400 -10 c-3 -8 -6 -5 -6 6 -1 11 2 17 5 13 3 -3
4 -12 1 -19z m1674 -92 c-9 -20 -16 16 -11 66 l4 53 6 -55 c3 -30 4 -59 1 -64z
m55 95 c-3 -5 1 -14 9 -21 8 -7 15 -17 15 -23 0 -5 -9 -2 -20 8 -21 19 -27 45
-9 45 5 0 8 -4 5 -9z m543 -36 c11 -19 17 -35 12 -35 -6 0 -17 17 -39 63 -2 4
-1 7 1 7 3 0 14 -16 26 -35z m1004 20 c-3 -9 -8 -14 -10 -11 -3 3 -2 9 2 15 9
16 15 13 8 -4z m-3333 -32 c0 -20 -3 -24 -11 -16 -7 7 -9 19 -6 27 10 24 17
19 17 -11z m710 17 c0 -5 -5 -10 -11 -10 -5 0 -7 5 -4 10 3 6 8 10 11 10 2 0
4 -4 4 -10z m1220 -20 c6 -11 8 -20 6 -20 -3 0 -10 9 -16 20 -6 11 -8 20 -6
20 3 0 10 -9 16 -20z m44 -22 c-3 -10 -1 -24 4 -31 12 -16 22 -68 11 -61 -5 3
-9 14 -9 26 0 14 -5 18 -15 14 -8 -3 -15 -4 -15 -2 0 3 -3 13 -6 23 -4 13 -3
15 4 5 7 -11 11 -8 14 12 3 15 1 29 -3 32 -5 3 -9 10 -9 16 0 6 6 6 15 -2 9
-8 13 -21 9 -32z m-156 -46 c1 -23 4 -47 7 -52 10 -16 -2 -11 -21 8 -17 16
-18 16 -11 0 3 -10 2 -18 -3 -18 -6 0 -10 -15 -10 -34 0 -20 -9 -44 -20 -57
-14 -16 -20 -19 -19 -9 4 41 -4 51 -12 15 -6 -22 -8 -51 -5 -65 3 -14 3 -19 0
-12 -14 32 -24 5 -25 -70 0 -60 -3 -77 -9 -60 -5 12 -7 29 -4 37 4 8 2 15 -3
15 -16 0 -9 65 10 93 12 19 14 32 8 50 -10 25 5 97 23 114 5 5 6 0 3 -10 -4
-10 -3 -16 2 -12 13 8 34 112 25 126 -4 8 -3 9 4 5 7 -4 12 -2 12 4 0 6 11 3
24 -7 18 -14 24 -28 24 -61z m79 46 c-3 -7 -5 -2 -5 12 0 14 2 19 5 13 2 -7 2
-19 0 -25z m1433 18 c0 -8 -4 -18 -10 -21 -5 -3 -10 3 -10 14 0 12 5 21 10 21
6 0 10 -6 10 -14z m-2213 -11 c0 -8 -4 -12 -9 -9 -5 3 -6 10 -3 15 9 13 12 11
12 -6z m816 -70 l6 -39 -19 32 c-11 18 -24 30 -29 27 -5 -3 -12 -1 -16 5 -9
14 18 12 34 -2 11 -11 12 -8 6 12 -5 16 -4 22 3 15 5 -5 12 -28 15 -50z m71
39 c5 -14 4 -15 -9 -4 -17 14 -19 20 -6 20 5 0 12 -7 15 -16z m583 -11 c12 -8
29 -26 38 -41 l16 -27 -20 23 c-11 12 -39 34 -63 48 -25 15 -33 22 -18 18 14
-4 35 -13 47 -21z m-1587 -6 c0 -2 -10 -12 -22 -23 l-23 -19 19 23 c18 21 26
27 26 19z m730 -17 c0 -11 -4 -20 -9 -20 -5 0 -7 9 -4 20 3 11 7 20 9 20 2 0
4 -9 4 -20z m161 -5 c3 2 10 -5 17 -16 12 -19 12 -20 -13 -3 -25 16 -25 16
-25 -13 0 -20 -5 -30 -15 -30 -8 0 -15 4 -15 9 0 4 5 8 10 8 15 0 12 30 -2 31
-10 0 -10 2 -1 5 7 3 9 13 6 22 -6 16 -5 15 14 -1 11 -9 22 -15 24 -12z m509
-66 c6 -23 9 -43 6 -46 -2 -3 -10 14 -16 38 -7 24 -15 38 -19 31 -4 -7 -12 6
-18 31 l-11 42 23 -28 c14 -15 29 -46 35 -68z m-1537 66 c-3 -9 -8 -14 -10
-11 -3 3 -2 9 2 15 9 16 15 13 8 -4z m1206 -25 c0 -10 -3 -8 -9 5 -12 27 -12
43 0 25 5 -8 9 -22 9 -30z m-2014 0 c1 -10 -2 -17 -7 -14 -4 3 -8 15 -8 26 0
26 13 15 15 -12z m1085 26 c0 -2 -8 -10 -17 -17 -16 -13 -17 -12 -4 4 13 16
21 21 21 13z m914 -46 l7 -25 -15 25 c-9 14 -15 32 -15 40 0 13 1 13 8 0 5 -8
12 -26 15 -40z m-134 -40 c0 -8 -7 -2 -15 14 -19 36 -19 45 0 20 8 -10 14 -26
15 -34z m-998 28 c-5 -7 -12 -22 -15 -33 -4 -16 -5 -15 -6 6 -1 27 6 39 22 39
6 0 5 -5 -1 -12z m883 -8 c-4 -11 -2 -20 4 -20 15 0 14 -53 -1 -68 -10 -10
-10 -15 2 -22 8 -5 11 -12 7 -16 -4 -4 -15 -1 -24 8 -12 13 -14 25 -8 55 5 21
7 42 6 47 -3 12 7 36 14 36 4 0 3 -9 0 -20z m168 -25 c5 -28 4 -34 -3 -20 -8
19 -14 73 -6 64 2 -2 6 -22 9 -44z m307 5 c17 -22 26 -37 18 -34 -19 8 -72 74
-60 74 6 0 25 -18 42 -40z m-1419 -11 c-6 -24 -9 -28 -10 -12 -1 24 9 56 16
50 2 -3 0 -20 -6 -38z m155 -17 c-17 -16 -18 -16 -5 5 7 12 15 20 18 17 3 -2
-3 -12 -13 -22z m269 8 c3 -5 -1 -10 -10 -10 -9 0 -13 5 -10 10 3 6 8 10 10
10 2 0 7 -4 10 -10z m802 -37 c-3 -10 -5 -2 -5 17 0 19 2 27 5 18 2 -10 2 -26
0 -35z m-946 14 c-10 -9 -11 -8 -5 6 3 10 9 15 12 12 3 -3 0 -11 -7 -18z m180
-11 c14 8 10 -9 -8 -31 -15 -20 -15 -20 -10 3 8 34 -6 26 -29 -16 -21 -39 -21
-67 -1 -55 7 3 8 2 4 -2 -14 -16 -36 -14 -30 3 4 10 2 13 -5 8 -19 -12 -14 5
15 48 32 47 47 60 51 46 2 -6 8 -8 13 -4z m1095 -53 c-4 -38 -11 -72 -15 -76
-5 -5 -5 13 0 40 5 26 7 60 3 76 -4 18 -1 27 7 27 9 0 10 -17 5 -67z m-416 22
c0 -5 -5 -3 -10 5 -5 8 -10 20 -10 25 0 6 5 3 10 -5 5 -8 10 -19 10 -25z
m-1860 -10 c0 -5 -5 -3 -10 5 -5 8 -10 20 -10 25 0 6 5 3 10 -5 5 -8 10 -19
10 -25z m2139 -69 c2 -60 -6 -39 -12 34 -3 41 -2 54 3 35 4 -16 8 -48 9 -69z
m239 63 c-3 -8 -7 -3 -11 10 -4 17 -3 21 5 13 5 -5 8 -16 6 -23z m206 15 c3
-8 2 -12 -4 -9 -6 3 -10 10 -10 16 0 14 7 11 14 -7z m-1294 -13 c-5 -11 -15
-23 -22 -27 -7 -5 -8 -2 -3 7 21 37 44 55 25 20z m371 -74 c-4 -33 -6 -36 -9
-14 -2 15 -7 27 -11 27 -4 0 -8 6 -9 13 0 6 -3 25 -7 40 l-6 29 23 -27 c19
-21 22 -35 19 -68z m81 58 c3 -13 1 -22 -3 -19 -9 5 -13 44 -5 44 2 0 6 -11 8
-25z m-330 -16 c-2 -17 -8 -27 -13 -22 -9 9 -1 53 10 53 4 0 6 -14 3 -31z
m-346 3 c1 -7 0 -8 -3 -2 -2 5 -9 8 -14 4 -5 -3 -9 0 -9 6 0 15 23 7 26 -8z
m810 -27 c9 -39 0 -30 -15 15 -6 19 -7 30 -2 25 5 -6 13 -23 17 -40z m778 -34
c-4 -5 -40 36 -55 64 -7 11 4 2 24 -20 19 -22 33 -42 31 -44z m-1577 17 c-3
-8 -6 -5 -6 6 -1 11 2 17 5 13 3 -3 4 -12 1 -19z m624 -78 c-6 -58 -9 -65 -10
-30 -1 48 10 131 16 115 1 -6 -1 -44 -6 -85z m-464 35 c-4 -8 -11 -15 -17 -15
-6 0 -6 7 2 20 14 22 24 19 15 -5z m47 10 c-4 -8 -8 -15 -10 -15 -2 0 -4 7 -4
15 0 8 4 15 10 15 5 0 7 -7 4 -15z m1073 -7 c-3 -8 -6 -5 -6 6 -1 11 2 17 5
13 3 -3 4 -12 1 -19z m-898 -46 c-1 -38 -2 -42 -9 -22 -12 37 -12 82 0 75 6
-3 10 -27 9 -53z m428 21 c-3 -10 -5 -4 -5 12 0 17 2 24 5 18 2 -7 2 -21 0
-30z m277 22 c-4 -8 -8 -15 -10 -15 -2 0 -4 7 -4 15 0 8 4 15 10 15 5 0 7 -7
4 -15z m243 -7 c-3 -8 -6 -5 -6 6 -1 11 2 17 5 13 3 -3 4 -12 1 -19z m-1029
-50 c-4 -9 -6 -23 -3 -30 3 -7 -4 -40 -15 -73 -19 -59 -19 -60 -14 -15 12 108
29 182 35 159 3 -13 2 -32 -3 -41z m257 5 c-4 -32 -11 -62 -17 -68 -8 -7 -9
-5 -5 7 4 10 9 40 13 68 4 27 9 50 11 50 3 0 2 -26 -2 -57z m-408 12 c0 -8 -4
-15 -9 -15 -10 0 -11 14 -1 23 9 10 10 9 10 -8z m572 -25 c0 -10 -3 -8 -9 5
-12 27 -12 43 0 25 5 -8 9 -22 9 -30z m-407 -12 c-7 -7 -12 -8 -12 -2 0 14 12
26 19 19 2 -3 -1 -11 -7 -17z m588 -9 c0 -6 9 -29 20 -51 11 -23 18 -43 15
-46 -4 -4 -55 103 -55 115 0 2 5 1 10 -2 6 -3 10 -11 10 -16z m-83 -21 c-3 -7
-5 -2 -5 12 0 14 2 19 5 13 2 -7 2 -19 0 -25z m-317 -18 c0 -13 -1 -13 -10 0
-5 8 -10 22 -10 30 0 13 1 13 10 0 5 -8 10 -22 10 -30z m-362 -35 c-3 -3 -9 2
-12 12 -6 14 -5 15 5 6 7 -7 10 -15 7 -18z m-48 0 c0 -8 -2 -15 -4 -15 -2 0
-6 7 -10 15 -3 8 -1 15 4 15 6 0 10 -7 10 -15z m1020 -32 c-11 -17 -11 -17 -6
0 3 10 6 24 7 30 0 9 2 9 5 0 3 -7 0 -20 -6 -30z m-939 0 c-8 -15 -10 -15 -11
-2 0 17 10 32 18 25 2 -3 -1 -13 -7 -23z m672 -34 c-5 -5 -7 7 -4 29 5 34 6
35 9 8 2 -16 0 -32 -5 -37z m-505 20 c-3 -8 -7 -3 -11 10 -4 17 -3 21 5 13 5
-5 8 -16 6 -23z m850 6 c-3 -3 -9 2 -12 12 -6 14 -5 15 5 6 7 -7 10 -15 7 -18z
m-961 -37 c-3 -7 -5 -2 -5 12 0 14 2 19 5 13 2 -7 2 -19 0 -25z m125 -32 c8 5
9 1 5 -10 -4 -10 -7 -29 -7 -42 0 -13 -4 -24 -9 -24 -5 0 -9 28 -8 63 0 34 2
50 4 34 3 -17 9 -25 15 -21z m-122 -40 c0 -40 -10 -27 -15 20 -4 28 -2 35 5
24 5 -8 10 -28 10 -44z m-153 22 c-3 -8 -6 -5 -6 6 -1 11 2 17 5 13 3 -3 4
-12 1 -19z m932 -21 c1 -5 -3 -5 -9 -2 -5 3 -10 16 -9 28 0 21 1 21 9 2 5 -11
9 -24 9 -28z m769 18 c-6 -14 -13 -23 -15 -21 -5 5 15 46 22 46 3 0 -1 -11 -7
-25z m-1861 -7 c-3 -8 -6 -5 -6 6 -1 11 2 17 5 13 3 -3 4 -12 1 -19z m210
-152 c-6 -14 -22 27 -31 74 -5 31 -4 29 14 -14 12 -27 19 -54 17 -60z m1675
79 c3 -13 1 -22 -3 -19 -9 5 -13 44 -5 44 2 0 6 -11 8 -25z m-1493 -37 l1 -53
-20 33 c-24 39 -26 54 -4 26 13 -16 15 -16 10 -1 -5 14 1 47 8 47 2 0 4 -24 5
-52z m25 27 c-4 -8 -8 -15 -10 -15 -2 0 -4 7 -4 15 0 8 4 15 10 15 5 0 7 -7 4
-15z m1406 -4 c0 -6 -4 -13 -10 -16 -5 -3 -10 1 -10 9 0 9 5 16 10 16 6 0 10
-4 10 -9z m47 -193 c0 -18 -2 -25 -4 -15 -3 9 -9 14 -14 11 -6 -3 -5 3 3 15 7
12 13 21 14 21 0 0 1 -15 1 -32z m-646 -1 c-10 -9 -11 -8 -5 6 3 10 9 15 12
12 3 -3 0 -11 -7 -18z m-1317 -106 c-2 -3 -12 3 -22 13 -16 17 -16 18 5 5 12
-7 20 -15 17 -18z m211 -50 c3 -5 0 -13 -6 -17 -7 -4 -9 -3 -5 4 3 5 0 13 -6
15 -9 4 -10 6 -1 6 6 1 14 -3 18 -8z m155 -63 c0 -6 6 -8 13 -5 8 3 20 1 28
-4 10 -6 7 -9 -12 -9 -15 0 -37 9 -50 19 l-24 20 23 -6 c12 -3 22 -10 22 -15z
m240 -47 c0 -5 -7 -11 -15 -15 -15 -5 -20 5 -8 17 9 10 23 9 23 -2z m550 -262
c0 -5 -8 -9 -17 -8 -11 0 -13 3 -5 6 6 2 9 10 6 15 -4 7 -2 8 4 4 7 -4 12 -11
12 -17z m-9 -252 c-13 -13 -26 -3 -16 12 3 6 11 8 17 5 6 -4 6 -10 -1 -17z
m694 -147 c3 -5 1 -10 -4 -10 -6 0 -11 5 -11 10 0 6 2 10 4 10 3 0 8 -4 11
-10z m-761 -196 c3 -8 2 -12 -4 -9 -6 3 -10 10 -10 16 0 14 7 11 14 -7z m-34
-68 c0 -11 -19 -15 -25 -6 -3 5 1 10 9 10 9 0 16 -2 16 -4z m-30 -46 c0 -5 -5
-10 -11 -10 -5 0 -7 5 -4 10 3 6 8 10 11 10 2 0 4 -4 4 -10z m47 -186 c-3 -3
-12 -4 -19 -1 -8 3 -5 6 6 6 11 1 17 -2 13 -5z"/>
<path d="M3300 4989 c0 -5 5 -7 10 -4 6 3 10 8 10 11 0 2 -4 4 -10 4 -5 0 -10
-5 -10 -11z"/>
<path d="M3013 4980 c-32 -13 -29 -17 7 -12 17 2 30 8 30 13 0 11 -8 11 -37
-1z"/>
<path d="M3265 4960 c-3 -5 1 -10 9 -10 9 0 16 5 16 10 0 6 -4 10 -9 10 -6 0
-13 -4 -16 -10z"/>
<path d="M3155 4950 c28 -12 37 -12 30 0 -3 6 -16 10 -28 9 -21 0 -21 -1 -2
-9z"/>
<path d="M3168 4733 c7 -3 16 -2 19 1 4 3 -2 6 -13 5 -11 0 -14 -3 -6 -6z"/>
<path d="M4247 4673 c-4 -3 -7 -11 -7 -17 0 -6 5 -5 12 2 6 6 9 14 7 17 -3 3
-9 2 -12 -2z"/>
<path d="M3630 4629 c0 -5 5 -7 10 -4 6 3 10 8 10 11 0 2 -4 4 -10 4 -5 0 -10
-5 -10 -11z"/>
<path d="M3660 4630 c0 -5 5 -10 11 -10 5 0 7 5 4 10 -3 6 -8 10 -11 10 -2 0
-4 -4 -4 -10z"/>
<path d="M3700 4619 c0 -5 5 -7 10 -4 6 3 10 8 10 11 0 2 -4 4 -10 4 -5 0 -10
-5 -10 -11z"/>
<path d="M3570 4596 c7 -7 13 -7 20 0 6 6 3 10 -10 10 -13 0 -16 -4 -10 -10z"/>
<path d="M4137 4599 c7 -7 15 -10 18 -7 3 3 -2 9 -12 12 -14 6 -15 5 -6 -5z"/>
<path d="M3337 4579 c7 -7 15 -10 18 -7 3 3 -2 9 -12 12 -14 6 -15 5 -6 -5z"/>
<path d="M4135 4570 c-9 -15 14 -40 31 -33 20 7 18 20 -5 33 -14 7 -22 7 -26
0z"/>
<path d="M4000 4539 c6 -10 15 -19 21 -19 6 0 7 5 3 11 -5 8 3 10 25 7 20 -3
28 -1 22 5 -5 5 -26 11 -45 13 -33 2 -35 1 -26 -17z"/>
<path d="M3953 4543 c-17 -6 -16 -20 1 -26 11 -4 13 -1 9 10 -5 13 -2 15 11
10 10 -4 15 -3 11 3 -7 11 -13 11 -32 3z"/>
<path d="M3469 4514 c-16 -20 5 -24 29 -5 22 16 23 17 2 17 -12 0 -26 -6 -31
-12z"/>
<path d="M3910 4524 c0 -3 7 -12 15 -21 20 -19 32 -9 15 12 -12 15 -30 20 -30
9z"/>
<path d="M4046 4514 c-4 -9 -4 -19 -1 -22 3 -3 5 0 5 8 0 10 3 10 17 -1 15
-13 15 -12 4 9 -14 26 -17 27 -25 6z"/>
<path d="M3970 4491 c0 -6 5 -13 10 -16 6 -3 10 1 10 9 0 9 -4 16 -10 16 -5 0
-10 -4 -10 -9z"/>
<path d="M3876 4475 c4 -8 11 -15 16 -15 6 0 5 6 -2 15 -7 8 -14 15 -16 15 -2
0 -1 -7 2 -15z"/>
<path d="M3665 4470 c-3 -5 1 -10 9 -10 8 0 18 5 21 10 3 6 -1 10 -9 10 -8 0
-18 -4 -21 -10z"/>
<path d="M3944 4469 c-4 -7 -3 -9 4 -5 5 3 13 0 15 -6 4 -9 6 -10 6 -1 1 17
-16 25 -25 12z"/>
<path d="M3800 4450 c0 -5 5 -10 11 -10 5 0 7 5 4 10 -3 6 -8 10 -11 10 -2 0
-4 -4 -4 -10z"/>
<path d="M6066 4563 c6 -4 14 -15 17 -23 5 -11 6 -9 4 4 -1 11 -9 21 -17 23
-10 3 -11 2 -4 -4z"/>
<path d="M3685 4800 c3 -5 8 -10 11 -10 2 0 4 5 4 10 0 6 -5 10 -11 10 -5 0
-7 -4 -4 -10z"/>
<path d="M6100 4320 c0 -5 5 -10 11 -10 5 0 7 5 4 10 -3 6 -8 10 -11 10 -2 0
-4 -4 -4 -10z"/>
<path d="M6130 4131 c0 -6 5 -13 10 -16 6 -3 10 1 10 9 0 9 -4 16 -10 16 -5 0
-10 -4 -10 -9z"/>
<path d="M6200 3960 c0 -5 5 -10 11 -10 5 0 7 5 4 10 -3 6 -8 10 -11 10 -2 0
-4 -4 -4 -10z"/>
<path d="M5540 4012 c0 -7 -4 -10 -10 -7 -5 3 -10 2 -10 -4 0 -10 38 -26 46
-19 2 3 -3 13 -11 24 -9 12 -14 14 -15 6z"/>
<path d="M5536 3925 c4 -8 13 -15 21 -15 12 0 12 2 -1 15 -8 8 -17 15 -20 15
-3 0 -3 -7 0 -15z"/>
<path d="M5646 3919 c-11 -10 -17 -21 -14 -24 7 -7 38 23 38 36 0 12 -2 11
-24 -12z"/>
<path d="M5481 3906 c-10 -12 -8 -14 14 -12 27 3 42 -8 25 -19 -17 -10 -12
-21 16 -33 14 -7 23 -8 19 -2 -3 5 -2 10 4 10 6 0 15 -9 21 -21 7 -11 14 -18
18 -15 3 3 -4 17 -16 29 -12 13 -20 26 -17 29 8 7 -17 26 -40 30 -11 1 -23 7
-26 11 -3 4 -11 1 -18 -7z m64 -46 c3 -5 2 -10 -4 -10 -5 0 -13 5 -16 10 -3 6
-2 10 4 10 5 0 13 -4 16 -10z"/>
<path d="M5600 3891 c0 -10 39 -36 45 -29 2 2 -8 11 -21 21 -13 10 -24 13 -24
8z"/>
<path d="M5693 3875 c-17 -18 -16 -22 2 -22 8 0 12 4 9 9 -3 4 0 8 5 8 6 0 11
5 11 10 0 14 -13 12 -27 -5z"/>
<path d="M5550 3801 c0 -6 -6 -9 -12 -7 -7 1 -10 1 -5 -1 4 -3 4 -10 0 -16 -4
-7 2 -5 13 3 10 8 20 15 22 16 2 1 -1 5 -7 9 -6 3 -11 2 -11 -4z"/>
<path d="M5605 3780 c10 -11 24 -20 32 -20 24 0 14 15 -18 27 -31 12 -31 12
-14 -7z"/>
<path d="M5560 3771 c0 -6 8 -14 17 -20 10 -5 18 -17 18 -27 0 -9 6 -19 13
-21 6 -3 12 0 12 6 0 6 -4 11 -10 11 -5 0 -7 6 -5 13 2 6 -7 20 -20 30 -14 10
-25 13 -25 8z"/>
<path d="M5560 3729 c0 -5 5 -7 10 -4 6 3 10 8 10 11 0 2 -4 4 -10 4 -5 0 -10
-5 -10 -11z"/>
<path d="M5670 3712 c0 -5 7 -9 15 -9 8 0 12 4 9 9 -3 4 -9 8 -15 8 -5 0 -9
-4 -9 -8z"/>
<path d="M5640 3696 c0 -9 -4 -14 -10 -11 -5 3 -10 1 -10 -4 0 -13 10 -14 30
-1 12 7 12 12 2 22 -9 9 -12 8 -12 -6z"/>
<path d="M5690 3672 c0 -10 33 -42 43 -42 14 0 5 16 -18 33 -14 10 -25 14 -25
9z"/>
<path d="M5552 3618 c2 -5 8 -9 13 -9 5 0 11 4 13 9 1 5 -4 9 -13 9 -9 0 -14
-4 -13 -9z"/>
<path d="M5660 3620 c0 -5 5 -10 11 -10 5 0 7 5 4 10 -3 6 -8 10 -11 10 -2 0
-4 -4 -4 -10z"/>
<path d="M5665 3580 c3 -5 8 -10 11 -10 2 0 4 5 4 10 0 6 -5 10 -11 10 -5 0
-7 -4 -4 -10z"/>
<path d="M4513 3238 c11 -10 24 -15 31 -11 7 5 4 9 -9 11 -11 2 -25 7 -30 11
-6 3 -2 -2 8 -11z"/>
<path d="M4470 3241 c0 -5 5 -13 10 -16 6 -3 10 -2 10 4 0 5 -4 13 -10 16 -5
3 -10 2 -10 -4z"/>
<path d="M4154 3161 c0 -11 4 -17 8 -15 4 3 8 12 8 20 0 8 -4 14 -8 14 -4 0
-8 -9 -8 -19z"/>
<path d="M4270 3140 c0 -5 5 -10 10 -10 6 0 10 5 10 10 0 6 -4 10 -10 10 -5 0
-10 -4 -10 -10z"/>
<path d="M4513 2369 c0 -15 7 -31 18 -37 12 -8 19 -8 19 -2 0 5 -4 10 -8 10
-5 0 -13 12 -18 28 l-11 27 0 -26z"/>
<path d="M4721 7623 c7 -10 15 -20 16 -22 2 -2 3 3 3 11 0 9 -7 19 -16 22 -15
6 -15 4 -3 -11z"/>
<path d="M4849 7576 c26 -28 31 -31 31 -17 0 5 -12 17 -27 26 l-28 18 24 -27z"/>
<path d="M4981 7527 c2 -1 14 -11 27 -21 12 -11 22 -16 22 -13 0 10 -31 37
-42 37 -6 0 -9 -1 -7 -3z"/>
<path d="M5625 7190 c3 -5 8 -10 11 -10 2 0 4 5 4 10 0 6 -5 10 -11 10 -5 0
-7 -4 -4 -10z"/>
<path d="M3470 6800 c-9 -6 -10 -10 -3 -10 6 0 15 5 18 10 8 12 4 12 -15 0z"/>
<path d="M4650 6736 c0 -9 30 -14 35 -6 4 6 -3 10 -14 10 -12 0 -21 -2 -21 -4z"/>
<path d="M4750 6669 c0 -5 5 -7 10 -4 6 3 10 8 10 11 0 2 -4 4 -10 4 -5 0 -10
-5 -10 -11z"/>
<path d="M4836 6617 c3 -10 9 -15 12 -12 3 3 0 11 -7 18 -10 9 -11 8 -5 -6z"/>
<path d="M4806 6605 c3 -8 15 -17 25 -20 11 -4 19 -12 18 -18 -3 -22 1 -40 7
-34 3 3 16 2 29 -3 26 -10 38 0 48 38 4 18 2 22 -10 18 -8 -3 -19 -6 -24 -6
-4 0 -6 -7 -3 -15 5 -11 -1 -15 -22 -15 -23 0 -26 2 -14 11 10 7 11 12 3 15
-6 3 -21 14 -34 25 -26 23 -30 24 -23 4z"/>
<path d="M4966 6545 c-8 -8 -27 -20 -42 -25 -33 -13 -25 -23 16 -22 16 0 32
-4 35 -9 8 -12 35 -12 35 1 0 6 -6 10 -14 10 -22 0 -29 17 -16 37 11 17 11 17
6 1 -6 -21 9 -24 17 -4 8 20 -20 28 -37 11z"/>
<path d="M5140 6250 c0 -5 5 -10 11 -10 5 0 7 5 4 10 -3 6 -8 10 -11 10 -2 0
-4 -4 -4 -10z"/>
<path d="M5070 6160 c0 -5 5 -10 11 -10 5 0 7 5 4 10 -3 6 -8 10 -11 10 -2 0
-4 -4 -4 -10z"/>
<path d="M5070 6009 c7 -11 14 -18 17 -15 8 8 -5 36 -17 36 -7 0 -7 -6 0 -21z"/>
<path d="M4930 5996 c0 -2 7 -9 15 -16 13 -11 14 -10 9 4 -5 14 -24 23 -24 12z"/>
<path d="M5040 5969 c0 -5 5 -7 10 -4 6 3 10 8 10 11 0 2 -4 4 -10 4 -5 0 -10
-5 -10 -11z"/>
<path d="M5096 5962 c-2 -4 4 -9 15 -9 11 -1 17 2 14 8 -7 11 -22 12 -29 1z"/>
<path d="M5088 5913 c3 -18 7 -21 13 -12 6 11 11 11 21 1 9 -9 9 -12 0 -12 -7
0 -9 -7 -5 -17 5 -12 2 -15 -10 -10 -9 3 -17 3 -17 -2 0 -5 10 -11 23 -13 20
-4 23 0 24 27 0 24 -6 35 -27 47 -26 15 -27 15 -22 -9z"/>
<path d="M5185 5690 c3 -5 8 -10 11 -10 2 0 4 5 4 10 0 6 -5 10 -11 10 -5 0
-7 -4 -4 -10z"/>
<path d="M5341 5664 c0 -11 3 -14 6 -6 3 7 2 16 -1 19 -3 4 -6 -2 -5 -13z"/>
<path d="M2855 5650 c-3 -6 1 -7 9 -4 18 7 21 14 7 14 -6 0 -13 -4 -16 -10z"/>
<path d="M5200 5640 c0 -5 5 -10 11 -10 5 0 7 5 4 10 -3 6 -8 10 -11 10 -2 0
-4 -4 -4 -10z"/>
<path d="M5355 5610 c3 -5 8 -10 11 -10 2 0 4 5 4 10 0 6 -5 10 -11 10 -5 0
-7 -4 -4 -10z"/>
<path d="M5260 5560 c0 -5 5 -10 11 -10 5 0 7 5 4 10 -3 6 -8 10 -11 10 -2 0
-4 -4 -4 -10z"/>
<path d="M5300 5550 c0 -5 12 -10 26 -10 14 0 23 4 19 10 -3 6 -15 10 -26 10
-10 0 -19 -4 -19 -10z"/>
<path d="M5380 5540 c0 -5 5 -10 10 -10 6 0 10 5 10 10 0 6 -4 10 -10 10 -5 0
-10 -4 -10 -10z"/>
<path d="M2765 5490 c-27 -28 -28 -30 -7 -27 12 2 25 7 29 12 5 4 2 5 -4 1
-19 -11 -15 5 4 20 10 7 15 15 12 18 -3 3 -18 -8 -34 -24z"/>
<path d="M2806 5443 c-6 -14 -5 -15 5 -6 7 7 10 15 7 18 -3 3 -9 -2 -12 -12z"/>
<path d="M5060 5440 c0 -7 -7 -10 -15 -6 -8 3 -15 1 -15 -3 0 -5 6 -11 13 -14
16 -6 41 20 27 28 -6 3 -10 1 -10 -5z"/>
<path d="M4965 5400 c-3 -5 -2 -10 4 -10 5 0 13 5 16 10 3 6 2 10 -4 10 -5 0
-13 -4 -16 -10z"/>
<path d="M3473 5360 c-13 -5 -23 -12 -23 -15 0 -9 16 -5 36 10 22 16 19 18
-13 5z"/>
<path d="M3365 5346 c-18 -13 -18 -14 8 -9 15 3 27 9 27 14 0 13 -13 11 -35
-5z"/>
<path d="M3915 5350 c-3 -6 1 -7 9 -4 18 7 21 14 7 14 -6 0 -13 -4 -16 -10z"/>
<path d="M3302 5343 c-6 -2 -10 -9 -6 -14 3 -5 -3 -9 -13 -9 -11 0 -28 -7 -39
-16 -19 -15 -19 -16 1 -9 61 21 72 27 72 40 0 8 -1 15 -1 14 -1 0 -7 -3 -14
-6z"/>
<path d="M3845 5340 c-3 -5 -1 -10 4 -10 6 0 11 5 11 10 0 6 -2 10 -4 10 -3 0
-8 -4 -11 -10z"/>
<path d="M3755 5330 c-17 -7 -15 -9 13 -9 17 -1 32 4 32 9 0 12 -17 12 -45 0z"/>
<path d="M2689 5283 c-13 -16 -12 -17 4 -4 16 13 21 21 13 21 -2 0 -10 -8 -17
-17z"/>
<path d="M2640 5270 c-11 -11 -20 -26 -20 -32 0 -8 5 -6 11 4 5 10 16 15 24
12 10 -4 15 0 15 15 0 26 -5 26 -30 1z"/>
<path d="M4175 5270 c3 -5 8 -10 11 -10 2 0 4 5 4 10 0 6 -5 10 -11 10 -5 0
-7 -4 -4 -10z"/>
<path d="M2576 5243 c-6 -14 -5 -15 5 -6 7 7 10 15 7 18 -3 3 -9 -2 -12 -12z"/>
<path d="M4780 5229 c0 -5 5 -7 10 -4 6 3 10 8 10 11 0 2 -4 4 -10 4 -5 0 -10
-5 -10 -11z"/>
<path d="M2567 5203 c3 -7 9 -10 14 -7 14 8 11 21 -5 21 -8 0 -12 -6 -9 -14z"/>
<path d="M2551 5158 c-1 -10 -8 -18 -16 -18 -8 0 -15 -5 -15 -11 0 -5 5 -7 10
-4 6 3 10 2 10 -3 0 -6 -7 -12 -15 -16 -8 -3 -15 -10 -15 -16 0 -6 5 -8 10 -5
6 4 10 -6 10 -22 1 -24 2 -25 11 -10 5 9 7 22 4 28 -4 5 -2 23 5 39 7 16 10
35 7 42 -4 8 -6 7 -6 -4z"/>
<path d="M2583 5148 c-18 -29 -33 -61 -30 -65 6 -5 21 17 35 50 12 28 9 36 -5
15z"/>
<path d="M2555 5044 c-9 -14 -15 -27 -13 -30 2 -2 12 10 22 26 21 37 15 40 -9
4z"/>
<path d="M2460 5045 c-7 -9 -10 -18 -7 -21 3 -3 10 4 17 15 13 25 8 27 -10 6z"/>
<path d="M2562 5001 c-11 -22 -14 -37 -8 -35 10 4 38 74 30 74 -2 0 -12 -18
-22 -39z"/>
<path d="M2465 5010 c-3 -5 -1 -10 4 -10 6 0 11 5 11 10 0 6 -2 10 -4 10 -3 0
-8 -4 -11 -10z"/>
<path d="M2467 4983 c-10 -10 -8 -63 2 -63 5 0 15 8 22 17 8 10 9 14 2 10 -6
-4 -14 -3 -17 2 -4 5 -2 12 4 16 5 3 10 10 10 16 0 10 -14 12 -23 2z"/>
<path d="M2566 4945 c-9 -26 -7 -32 5 -12 6 10 9 21 6 23 -2 3 -7 -2 -11 -11z"/>
<path d="M2488 4906 c-29 -36 -36 -52 -18 -41 13 8 13 -16 0 -51 -6 -15 -7
-31 -3 -35 8 -8 15 23 16 78 0 18 4 30 8 28 4 -3 12 9 18 25 5 17 9 30 8 30
-1 0 -14 -16 -29 -34z"/>
<path d="M2552 4886 c-15 -33 -11 -44 7 -22 7 8 11 23 9 32 -2 14 -6 11 -16
-10z"/>
<path d="M2515 4859 c-4 -6 -5 -12 -2 -15 2 -3 7 2 10 11 7 17 1 20 -8 4z"/>
<path d="M2421 4831 c-13 -11 -28 -22 -34 -24 -7 -2 -8 -8 -4 -13 4 -4 22 6
40 24 35 35 33 44 -2 13z"/>
<path d="M2405 4780 c-3 -5 -1 -10 4 -10 6 0 11 5 11 10 0 6 -2 10 -4 10 -3 0
-8 -4 -11 -10z"/>
<path d="M2357 4729 c-10 -18 -16 -33 -14 -35 8 -8 39 35 35 50 -2 11 -8 6
-21 -15z"/>
<path d="M2433 4713 c-3 -10 -8 -22 -10 -28 -3 -5 3 -1 11 9 16 20 21 36 11
36 -3 0 -8 -8 -12 -17z"/>
<path d="M2365 4660 c-3 -5 -1 -10 4 -10 6 0 11 5 11 10 0 6 -2 10 -4 10 -3 0
-8 -4 -11 -10z"/>
<path d="M2360 4625 c-7 -8 -8 -15 -2 -15 5 0 15 7 22 15 7 8 8 15 2 15 -5 0
-15 -7 -22 -15z"/>
<path d="M2560 4300 c-7 -14 -8 -26 -1 -38 6 -9 11 -12 11 -7 1 6 3 22 5 38 4
32 0 34 -15 7z"/>
<path d="M2005 4281 c-8 -14 14 -24 28 -13 7 5 21 12 32 15 12 3 5 5 -17 6
-20 0 -39 -3 -43 -8z"/>
<path d="M2574 4239 c-3 -6 -2 -15 3 -20 5 -5 9 -1 9 11 0 23 -2 24 -12 9z"/>
<path d="M2577 4013 c-4 -3 -7 -11 -7 -17 0 -6 5 -5 12 2 6 6 9 14 7 17 -3 3
-9 2 -12 -2z"/>
<path d="M2576 3916 c-23 -49 -19 -59 5 -13 11 22 18 41 16 43 -2 3 -12 -11
-21 -30z"/>
<path d="M2454 3871 c-25 -40 -29 -52 -21 -75 l9 -28 39 43 c44 50 45 56 21
85 -17 22 -17 22 -48 -25z"/>
<path d="M2595 3900 c-3 -5 -1 -10 4 -10 6 0 11 5 11 10 0 6 -2 10 -4 10 -3 0
-8 -4 -11 -10z"/>
<path d="M4364 3882 c-42 -4 -114 -66 -114 -97 0 -28 27 -40 49 -21 9 8 35 19
57 25 25 7 48 21 58 36 9 14 23 25 32 25 8 0 13 4 10 9 -9 14 -58 27 -92 23z"/>
<path d="M2590 3862 c0 -11 -4 -24 -10 -27 -5 -3 -10 -16 -9 -28 0 -21 1 -21
10 3 8 20 12 22 19 10 7 -10 8 -4 4 20 -8 42 -14 51 -14 22z"/>
<path d="M2617 3795 c-4 -8 -13 -15 -21 -15 -8 0 -18 -5 -22 -12 -5 -8 -2 -9
9 -5 10 3 17 2 17 -3 0 -6 -4 -10 -10 -10 -5 0 -15 -10 -21 -22 l-12 -23 25
23 c13 12 28 19 32 15 4 -4 4 0 0 10 -3 9 -1 24 6 32 7 9 11 18 8 21 -3 3 -8
-2 -11 -11z"/>
<path d="M2586 3703 c-6 -14 -5 -15 5 -6 7 7 10 15 7 18 -3 3 -9 -2 -12 -12z"/>
<path d="M2607 3648 c-15 -32 -16 -32 -17 -8 0 20 -2 22 -10 10 -13 -20 -13
-63 0 -55 6 3 10 1 10 -4 0 -6 -4 -11 -10 -11 -5 0 -10 -8 -9 -17 0 -11 3 -13
6 -5 7 17 20 15 27 -4 3 -8 -1 -22 -9 -30 -20 -20 -19 -44 1 -44 8 0 12 4 9
10 -3 5 1 24 10 41 9 17 12 28 6 25 -17 -11 -13 30 5 44 8 8 20 23 26 34 9 18
7 18 -17 -4 l-27 -25 7 25 c4 14 10 31 12 38 10 25 -4 11 -20 -20z"/>
<path d="M4300 3590 c0 -5 5 -10 10 -10 6 0 10 5 10 10 0 6 -4 10 -10 10 -5 0
-10 -4 -10 -10z"/>
<path d="M4455 3570 c-10 -11 -14 -20 -9 -20 5 0 15 9 22 20 7 11 11 20 9 20
-2 0 -12 -9 -22 -20z"/>
<path d="M2661 3534 c-12 -15 -21 -33 -21 -40 0 -8 -4 -14 -10 -14 -5 0 -10
-7 -10 -15 0 -7 -6 -18 -13 -22 -18 -11 -28 -41 -17 -48 6 -4 10 0 10 8 0 8 9
22 20 32 11 10 18 20 16 23 -3 2 5 21 18 41 35 56 38 61 32 61 -2 0 -14 -12
-25 -26z"/>
<path d="M2679 3503 c-27 -44 -36 -91 -13 -72 8 6 12 20 9 29 -3 10 2 23 12
31 15 11 16 11 6 -1 -7 -8 -13 -18 -13 -24 0 -5 6 -4 13 3 9 9 18 71 10 71 -1
0 -12 -16 -24 -37z"/>
<path d="M4155 3510 c-3 -6 1 -7 9 -4 18 7 21 14 7 14 -6 0 -13 -4 -16 -10z"/>
<path d="M2724 3463 c-9 -21 -21 -47 -27 -58 -11 -21 -17 -102 -9 -122 7 -20
24 -4 17 16 -3 10 1 37 10 60 8 24 13 47 10 51 -3 5 1 27 9 49 17 51 11 53
-10 4z m-14 -83 c-6 -12 -14 -20 -17 -17 -2 3 1 14 8 26 7 11 15 18 17 16 2
-2 -2 -13 -8 -25z"/>
<path d="M4106 3482 c-3 -5 1 -9 9 -9 8 0 12 4 9 9 -3 4 -7 8 -9 8 -2 0 -6 -4
-9 -8z"/>
<path d="M4145 3470 c-10 -11 -13 -20 -7 -20 6 0 16 9 22 20 6 11 9 20 7 20
-2 0 -12 -9 -22 -20z"/>
<path d="M4050 3469 c0 -5 5 -7 10 -4 6 3 10 8 10 11 0 2 -4 4 -10 4 -5 0 -10
-5 -10 -11z"/>
<path d="M2752 3430 c-7 -11 -8 -20 -3 -20 9 0 24 30 18 36 -1 2 -8 -6 -15
-16z"/>
<path d="M4080 3435 c-10 -12 -10 -15 3 -15 8 0 17 7 21 15 3 8 2 15 -3 15 -5
0 -14 -7 -21 -15z"/>
<path d="M2611 3396 c-9 -23 -9 -31 1 -37 18 -11 30 15 19 43 l-9 23 -11 -29z"/>
<path d="M3935 3400 c-3 -5 -1 -10 4 -10 6 0 11 5 11 10 0 6 -2 10 -4 10 -3 0
-8 -4 -11 -10z"/>
<path d="M2800 3321 c-7 -13 -7 -22 0 -26 11 -7 11 -8 14 23 3 27 0 28 -14 3z"/>
<path d="M2860 3310 c-6 -11 -8 -20 -6 -20 3 0 10 9 16 20 6 11 8 20 6 20 -3
0 -10 -9 -16 -20z"/>
<path d="M2835 3270 c-3 -5 -1 -10 4 -10 6 0 11 -5 11 -11 0 -11 24 -39 34
-39 3 0 6 7 6 16 0 8 -5 12 -10 9 -6 -3 -14 5 -20 19 -10 28 -15 31 -25 16z"/>
<path d="M2997 3081 c-4 -17 -3 -21 5 -13 5 5 8 16 6 23 -3 8 -7 3 -11 -10z"/>
<path d="M4788 3073 c7 -3 16 -2 19 1 4 3 -2 6 -13 5 -11 0 -14 -3 -6 -6z"/>
<path d="M3150 3030 c-6 -11 -8 -20 -6 -20 3 0 10 9 16 20 6 11 8 20 6 20 -3
0 -10 -9 -16 -20z"/>
<path d="M4630 3030 c0 -5 5 -10 11 -10 5 0 7 5 4 10 -3 6 -8 10 -11 10 -2 0
-4 -4 -4 -10z"/>
<path d="M4750 3021 c0 -5 5 -13 10 -16 6 -3 10 -2 10 4 0 5 -4 13 -10 16 -5
3 -10 2 -10 -4z"/>
<path d="M4711 2994 c0 -11 3 -14 6 -6 3 7 2 16 -1 19 -3 4 -6 -2 -5 -13z"/>
<path d="M4630 2991 c0 -5 5 -13 10 -16 6 -3 10 -2 10 4 0 5 -4 13 -10 16 -5
3 -10 2 -10 -4z"/>
<path d="M4680 2981 c0 -6 4 -13 10 -16 6 -3 7 1 4 9 -7 18 -14 21 -14 7z"/>
<path d="M4741 2983 c0 -5 4 -17 9 -28 8 -18 9 -17 9 8 1 15 -3 27 -9 27 -5 0
-10 -3 -9 -7z"/>
<path d="M4781 2964 c0 -11 3 -14 6 -6 3 7 2 16 -1 19 -3 4 -6 -2 -5 -13z"/>
<path d="M4721 2954 c0 -11 3 -14 6 -6 3 7 2 16 -1 19 -3 4 -6 -2 -5 -13z"/>
<path d="M3215 2890 c-3 -5 -1 -10 4 -10 6 0 11 5 11 10 0 6 -2 10 -4 10 -3 0
-8 -4 -11 -10z"/>
<path d="M3367 2823 c-4 -3 -7 -11 -7 -17 0 -6 5 -5 12 2 6 6 9 14 7 17 -3 3
-9 2 -12 -2z"/>
<path d="M4458 2783 c-9 -10 -21 -29 -28 -41 -6 -13 -14 -21 -18 -18 -3 4 0
12 6 18 7 7 12 21 12 33 0 16 -4 14 -21 -12 -12 -18 -25 -33 -30 -33 -13 0
-11 14 4 29 10 10 9 11 -5 6 -10 -4 -18 -14 -18 -23 0 -8 -8 -25 -17 -36 -18
-21 -18 -21 5 -2 18 16 22 16 22 4 0 -9 -7 -21 -15 -28 -8 -7 -15 -17 -15 -23
0 -5 9 -2 20 8 11 10 20 15 20 10 0 -4 8 -1 17 6 14 12 14 10 -1 -13 -21 -32
-28 -36 -20 -10 5 14 3 14 -10 -2 -9 -11 -16 -25 -16 -30 0 -6 -5 -4 -10 4 -9
13 -10 13 -11 0 -1 -8 -1 -19 0 -24 1 -4 -5 -19 -14 -32 -8 -13 -15 -29 -15
-36 0 -7 8 -1 18 15 9 15 20 27 24 27 5 0 8 6 8 13 0 7 16 29 36 48 40 39 73
88 79 118 2 12 7 26 10 31 10 16 -1 11 -17 -7z"/>
<path d="M3416 2751 c-14 -23 -14 -50 0 -55 9 -4 12 -2 8 5 -4 6 -1 15 6 19 9
5 9 13 3 25 -7 12 -13 14 -17 6z"/>
<path d="M4317 2726 c-4 -10 -7 -25 -6 -34 0 -11 4 -9 10 7 5 13 8 29 6 35 -2
5 -6 2 -10 -8z"/>
<path d="M4190 2660 c-9 -6 -10 -10 -3 -10 6 0 15 5 18 10 8 12 4 12 -15 0z"/>
<path d="M4300 2650 c-8 -5 -11 -12 -7 -16 4 -4 15 0 24 9 18 18 8 23 -17 7z"/>
<path d="M4385 2588 l-40 -43 43 40 c39 36 47 45 39 45 -2 0 -21 -19 -42 -42z"/>
<path d="M2680 2590 c0 -19 3 -21 12 -12 9 9 9 15 0 24 -9 9 -12 7 -12 -12z"/>
<path d="M3693 2564 c-18 -14 -33 -30 -33 -35 0 -12 56 31 64 49 7 16 6 16
-31 -14z"/>
<path d="M2677 2540 c-3 -11 -1 -20 4 -20 5 0 9 9 9 20 0 11 -2 20 -4 20 -2 0
-6 -9 -9 -20z"/>
<path d="M3712 2520 c-12 -12 -22 -23 -22 -26 0 -8 49 30 50 39 0 11 -4 9 -28
-13z"/>
<path d="M3818 2523 c-10 -2 -18 -9 -18 -14 0 -14 16 -11 30 6 7 8 11 14 9 14
-2 -1 -12 -3 -21 -6z"/>
<path d="M3641 2494 c0 -11 3 -14 6 -6 3 7 2 16 -1 19 -3 4 -6 -2 -5 -13z"/>
<path d="M3640 2461 c0 -5 -12 -24 -27 -43 -26 -32 -26 -32 -3 -13 45 36 63
65 40 65 -5 0 -10 -4 -10 -9z"/>
<path d="M3550 2429 c0 -5 5 -7 10 -4 6 3 10 8 10 11 0 2 -4 4 -10 4 -5 0 -10
-5 -10 -11z"/>
<path d="M2741 2303 c7 -12 15 -20 18 -17 3 2 -3 12 -13 22 -17 16 -18 16 -5
-5z"/>
<path d="M4240 2279 c0 -5 5 -7 10 -4 6 3 10 8 10 11 0 2 -4 4 -10 4 -5 0 -10
-5 -10 -11z"/>
<path d="M4175 2260 c-3 -5 -1 -10 4 -10 6 0 11 5 11 10 0 6 -2 10 -4 10 -3 0
-8 -4 -11 -10z"/>
<path d="M4380 2235 c0 -14 2 -25 4 -25 2 0 6 11 8 25 3 14 1 25 -3 25 -5 0
-9 -11 -9 -25z"/>
<path d="M4227 2243 c-4 -3 -7 -11 -7 -17 0 -6 5 -5 12 2 6 6 9 14 7 17 -3 3
-9 2 -12 -2z"/>
<path d="M4320 2235 c-7 -9 -11 -17 -9 -20 3 -2 10 5 17 15 14 24 10 26 -8 5z"/>
<path d="M4170 2216 c0 -9 5 -16 10 -16 6 0 10 4 10 9 0 6 -4 13 -10 16 -5 3
-10 -1 -10 -9z"/>
<path d="M4247 2181 c2 -7 -2 -21 -9 -30 -8 -10 -5 -9 10 3 21 18 32 43 13 32
-5 -4 -11 -3 -14 1 -2 5 -2 2 0 -6z"/>
<path d="M4371 2173 c-1 -18 4 -33 10 -33 5 0 8 4 5 9 -3 5 1 11 9 15 8 3 15
13 15 23 -1 16 -2 16 -12 -2 -11 -19 -11 -19 -19 0 -6 16 -8 13 -8 -12z"/>
<path d="M4336 2147 c3 -10 9 -15 12 -12 3 3 0 11 -7 18 -10 9 -11 8 -5 -6z"/>
<path d="M2860 2041 c0 -6 20 -24 45 -41 25 -17 45 -29 45 -28 0 2 -20 21 -45
41 -25 21 -45 33 -45 28z"/>
<path d="M3290 1655 c0 -8 59 -65 67 -65 4 0 -8 16 -27 35 -34 35 -40 40 -40
30z"/>
<path d="M5771 1594 c0 -11 3 -14 6 -6 3 7 2 16 -1 19 -3 4 -6 -2 -5 -13z"/>
<path d="M5750 1549 c0 -5 5 -7 10 -4 6 3 10 8 10 11 0 2 -4 4 -10 4 -5 0 -10
-5 -10 -11z"/>
<path d="M3460 1501 c0 -5 5 -13 10 -16 6 -3 10 -2 10 4 0 5 -4 13 -10 16 -5
3 -10 2 -10 -4z"/>
<path d="M3516 1467 c3 -10 9 -15 12 -12 3 3 0 11 -7 18 -10 9 -11 8 -5 -6z"/>
<path d="M3555 1450 c3 -5 8 -10 11 -10 2 0 4 5 4 10 0 6 -5 10 -11 10 -5 0
-7 -4 -4 -10z"/>
<path d="M2376 1415 c-55 -19 -106 -64 -142 -124 -32 -53 -122 -162 -219 -265
-31 -33 -79 -98 -108 -147 -56 -93 -114 -162 -168 -199 -71 -48 -89 -72 -89
-112 0 -37 -2 -39 -56 -63 -32 -14 -77 -32 -101 -40 -75 -26 -197 -85 -223
-110 -14 -13 -83 -57 -155 -98 -71 -41 -175 -100 -230 -133 -55 -32 -127 -73
-160 -91 l-60 -33 1453 0 c798 0 1452 4 1452 8 0 5 -20 22 -45 40 -25 17 -45
36 -45 41 0 6 -6 8 -14 5 -7 -3 -20 2 -29 10 -9 9 -19 16 -24 16 -5 0 -15 9
-23 21 -8 12 -25 25 -38 30 -12 5 -21 12 -20 16 3 9 -61 81 -116 132 -22 20
-56 53 -75 75 -20 21 -63 63 -95 95 -159 152 -198 191 -251 251 -114 129 -167
221 -184 318 -31 174 -31 168 -11 226 11 31 20 73 20 94 l0 39 -52 7 c-82 9
-149 6 -192 -9z"/>
<path d="M3555 1410 c3 -5 8 -10 11 -10 2 0 4 5 4 10 0 6 -5 10 -11 10 -5 0
-7 -4 -4 -10z"/>
<path d="M5742 1360 c0 -14 2 -19 5 -12 2 6 2 18 0 25 -3 6 -5 1 -5 -13z"/>
<path d="M3745 1292 c16 -18 85 -43 85 -32 0 5 -7 10 -15 10 -9 0 -30 7 -48
16 -18 9 -27 12 -22 6z"/>
<path d="M3844 1251 c3 -5 15 -7 26 -4 28 7 25 13 -6 13 -14 0 -23 -4 -20 -9z"/>
<path d="M4470 1120 c0 -5 5 -10 11 -10 5 0 7 5 4 10 -3 6 -8 10 -11 10 -2 0
-4 -4 -4 -10z"/>
<path d="M4380 1110 c0 -5 5 -10 10 -10 6 0 10 5 10 10 0 6 -4 10 -10 10 -5 0
-10 -4 -10 -10z"/>
<path d="M4656 1051 c-3 -5 0 -11 8 -14 8 -3 17 1 20 9 6 15 -19 20 -28 5z"/>
<path d="M4660 1010 c0 -5 5 -10 11 -10 5 0 7 5 4 10 -3 6 -8 10 -11 10 -2 0
-4 -4 -4 -10z"/>
<path d="M4799 953 c-13 -16 -12 -17 4 -4 9 7 17 15 17 17 0 8 -8 3 -21 -13z"/>
<path d="M4891 831 c-9 -6 -10 -11 -2 -15 6 -4 8 -13 4 -19 -4 -7 1 -5 12 3
10 8 20 14 22 13 1 -2 3 -1 3 2 0 3 0 10 0 15 0 12 -20 13 -39 1z"/>
<path d="M4900 729 c0 -5 5 -7 10 -4 6 3 10 8 10 11 0 2 -4 4 -10 4 -5 0 -10
-5 -10 -11z"/>
<path d="M4870 710 c0 -6 7 -10 15 -10 8 0 15 2 15 4 0 2 -7 6 -15 10 -8 3
-15 1 -15 -4z"/>
<path d="M4800 370 c-8 -5 -12 -11 -9 -14 2 -3 11 -1 19 4 8 5 12 11 9 14 -2
3 -11 1 -19 -4z"/>
<path d="M4757 89 c7 -7 15 -10 18 -7 3 3 -2 9 -12 12 -14 6 -15 5 -6 -5z"/>
</g>
</svg>
