<?xml version="1.0" encoding="utf-8"?>
<!-- Generator: Adobe Illustrator 16.0.4, SVG Export Plug-In . SVG Version: 6.00 Build 0)  -->
<!DOCTYPE svg PUBLIC "-//W3C//DTD SVG 1.1//EN" "http://www.w3.org/Graphics/SVG/1.1/DTD/svg11.dtd">
<svg version="1.1" id="Layer_1" xmlns="http://www.w3.org/2000/svg" xmlns:xlink="http://www.w3.org/1999/xlink" x="0px" y="0px"
	 width="28px" height="28px" viewBox="0 0 28 28" enable-background="new 0 0 28 28" xml:space="preserve">
<path fill-rule="evenodd" clip-rule="evenodd" fill="#3D464D" d="M13.999,0.346C6.269,0.346,0,6.613,0,14.346
	c0,6.185,4.011,11.433,9.574,13.283c0.701,0.129,0.958-0.305,0.958-0.675c0-0.331-0.014-1.213-0.02-2.38
	c-3.895,0.846-4.716-1.878-4.716-1.878c-0.637-1.616-1.555-2.047-1.555-2.047c-1.271-0.87,0.097-0.853,0.097-0.853
	c1.404,0.1,2.145,1.445,2.145,1.445c1.248,2.139,3.275,1.521,4.075,1.162c0.126-0.905,0.487-1.521,0.888-1.872
	c-3.108-0.353-6.377-1.554-6.377-6.92c0-1.528,0.546-2.777,1.441-3.755C6.364,9.503,5.883,8.079,6.646,6.152
	c0,0,1.176-0.378,3.85,1.436C11.612,7.277,12.81,7.12,14,7.115c1.189,0.005,2.386,0.162,3.505,0.473
	c2.673-1.813,3.846-1.436,3.846-1.436c0.765,1.927,0.283,3.351,0.139,3.705c0.897,0.978,1.439,2.227,1.439,3.755
	c0,5.38-3.273,6.563-6.392,6.908c0.501,0.433,0.95,1.287,0.95,2.593c0,1.874-0.018,3.383-0.018,3.841
	c0,0.374,0.253,0.812,0.963,0.675C23.992,25.772,28,20.528,28,14.346C28,6.613,21.73,0.346,13.999,0.346z"/>
</svg>
