<?xml version="1.0" encoding="utf-8"?>
<!-- Generator: Adobe Illustrator 16.0.4, SVG Export Plug-In . SVG Version: 6.00 Build 0)  -->
<!DOCTYPE svg PUBLIC "-//W3C//DTD SVG 1.1//EN" "http://www.w3.org/Graphics/SVG/1.1/DTD/svg11.dtd">
<svg version="1.1" id="Layer_1" xmlns="http://www.w3.org/2000/svg" xmlns:xlink="http://www.w3.org/1999/xlink" x="0px" y="0px"
	 width="23px" height="23px" viewBox="0 0 23 23" enable-background="new 0 0 23 23" xml:space="preserve">
<g>
	<g>
		<path fill="#3D464D" d="M21.297,0H1.696C0.762,0,0,0.743,0,1.658v19.684C0,22.256,0.762,23,1.696,23h19.601
			C22.236,23,23,22.256,23,21.342V1.658C23,0.743,22.236,0,21.297,0z M6.822,19.599H3.406V8.622h3.416V19.599z M5.116,7.124
			c-1.095,0-1.979-0.888-1.979-1.978c0-1.094,0.884-1.979,1.979-1.979c1.091,0,1.976,0.886,1.976,1.979
			C7.092,6.236,6.207,7.124,5.116,7.124z M19.599,19.599h-3.41v-5.338c0-1.273-0.022-2.911-1.773-2.911
			c-1.774,0-2.044,1.39-2.044,2.82v5.429H8.962V8.622h3.268v1.501h0.049c0.457-0.861,1.567-1.772,3.228-1.772
			c3.456,0,4.093,2.273,4.093,5.229V19.599z"/>
	</g>
</g>
</svg>
